<svg xmlns="http://www.w3.org/2000/svg" version="1.1" xmlns:xlink="http://www.w3.org/1999/xlink" xmlns:svgjs="http://svgjs.com/svgjs" width="560" height="1440" preserveAspectRatio="none" viewBox="0 0 560 1440"><g mask="url(&quot;#SvgjsMask1241&quot;)" fill="none"><rect width="560" height="1440" x="0" y="0" fill="#0e2a47"></rect><g mask="url(&quot;#SvgjsMask1243&quot;)"><path d="M304.5 1186.5L283.5 1165.5L283.5 1144.5L283.5 1123.5L283.5 1102.5L283.5 1081.5L283.5 1060.5M304.5 808.5L283.5 787.5L283.5 766.5L283.5 745.5L283.5 724.5M304.5 913.5L283.5 892.5L283.5 871.5L283.5 850.5L283.5 829.5M304.5 745.5L325.5 724.5L325.5 703.5L325.5 682.5L325.5 661.5L325.5 640.5L325.5 619.5M283.5 1396.5L262.5 1375.5L262.5 1354.5L262.5 1333.5L262.5 1312.5L262.5 1291.5L283.5 1270.5L283.5 1249.5L283.5 1228.5L283.5 1207.5L283.5 1186.5L262.5 1165.5L262.5 1144.5L262.5 1123.5L262.5 1102.5L262.5 1081.5L262.5 1060.5M304.5 1018.5L283.5 997.5L283.5 976.5L283.5 955.5L283.5 934.5L283.5 913.5M304.5 640.5L283.5 619.5L283.5 598.5L283.5 577.5L283.5 556.5L283.5 535.5L283.5 514.5L283.5 493.5M283.5 1312.5L283.5 1291.5M304.5 577.5L325.5 556.5L325.5 535.5L325.5 514.5M283.5 1417.5L262.5 1396.5M304.5 1039.5L283.5 1018.5M283.5 1459.5L283.5 1438.5L283.5 1417.5L283.5 1396.5L283.5 1375.5L283.5 1354.5L283.5 1333.5L283.5 1312.5L304.5 1291.5L304.5 1270.5L304.5 1249.5L304.5 1228.5L304.5 1207.5L304.5 1186.5L304.5 1165.5L304.5 1144.5L304.5 1123.5L304.5 1102.5L304.5 1081.5L304.5 1060.5L304.5 1039.5L304.5 1018.5L304.5 997.5L304.5 976.5L304.5 955.5L304.5 934.5L304.5 913.5L304.5 892.5L304.5 871.5L304.5 850.5L304.5 829.5L304.5 808.5L304.5 787.5L304.5 766.5L304.5 745.5L304.5 724.5L304.5 703.5L304.5 682.5L304.5 661.5L304.5 640.5L304.5 619.5L304.5 598.5L304.5 577.5L304.5 556.5L304.5 535.5" stroke="url(#SvgjsLinearGradient1242)" stroke-width="3.5"></path><path d="M299.25 535.5 a5.25 5.25 0 1 0 10.5 0 a5.25 5.25 0 1 0 -10.5 0zM278.25 1060.5 a5.25 5.25 0 1 0 10.5 0 a5.25 5.25 0 1 0 -10.5 0zM278.25 724.5 a5.25 5.25 0 1 0 10.5 0 a5.25 5.25 0 1 0 -10.5 0zM278.25 829.5 a5.25 5.25 0 1 0 10.5 0 a5.25 5.25 0 1 0 -10.5 0zM320.25 619.5 a5.25 5.25 0 1 0 10.5 0 a5.25 5.25 0 1 0 -10.5 0zM257.25 1060.5 a5.25 5.25 0 1 0 10.5 0 a5.25 5.25 0 1 0 -10.5 0zM278.25 913.5 a5.25 5.25 0 1 0 10.5 0 a5.25 5.25 0 1 0 -10.5 0zM278.25 493.5 a5.25 5.25 0 1 0 10.5 0 a5.25 5.25 0 1 0 -10.5 0zM278.25 1291.5 a5.25 5.25 0 1 0 10.5 0 a5.25 5.25 0 1 0 -10.5 0zM320.25 514.5 a5.25 5.25 0 1 0 10.5 0 a5.25 5.25 0 1 0 -10.5 0zM257.25 1396.5 a5.25 5.25 0 1 0 10.5 0 a5.25 5.25 0 1 0 -10.5 0zM278.25 1018.5 a5.25 5.25 0 1 0 10.5 0 a5.25 5.25 0 1 0 -10.5 0z" fill="url(#SvgjsLinearGradient1242)"></path><path d="M241.5 1144.5L220.5 1123.5L220.5 1102.5L220.5 1081.5L220.5 1060.5L220.5 1039.5L199.5 1018.5L199.5 997.5L199.5 976.5L199.5 955.5L199.5 934.5M262.5 1270.5L241.5 1249.5L241.5 1228.5M262.5 808.5L241.5 787.5L241.5 766.5L241.5 745.5M262.5 1207.5L262.5 1186.5M241.5 1438.5L262.5 1417.5M262.5 913.5L241.5 892.5L241.5 871.5M262.5 829.5L241.5 808.5L220.5 787.5L220.5 766.5L220.5 745.5L220.5 724.5L220.5 703.5L220.5 682.5L220.5 661.5L220.5 640.5L220.5 619.5L220.5 598.5L220.5 577.5L220.5 556.5M262.5 997.5L241.5 976.5L241.5 955.5L220.5 934.5L220.5 913.5L220.5 892.5L199.5 871.5L178.5 850.5M241.5 1165.5L220.5 1144.5L199.5 1123.5L199.5 1102.5L199.5 1081.5M262.5 1018.5L241.5 997.5M262.5 1459.5L241.5 1438.5L241.5 1417.5L241.5 1396.5L241.5 1375.5L241.5 1354.5L241.5 1333.5L241.5 1312.5L241.5 1291.5L262.5 1270.5L262.5 1249.5L262.5 1228.5L262.5 1207.5L241.5 1186.5L241.5 1165.5L241.5 1144.5L241.5 1123.5L241.5 1102.5L241.5 1081.5L241.5 1060.5L241.5 1039.5L262.5 1018.5L262.5 997.5L262.5 976.5L262.5 955.5L262.5 934.5L262.5 913.5L262.5 892.5L262.5 871.5L262.5 850.5L262.5 829.5L262.5 808.5L262.5 787.5L262.5 766.5L262.5 745.5L262.5 724.5L262.5 703.5L262.5 682.5L262.5 661.5L262.5 640.5L262.5 619.5" stroke="url(#SvgjsLinearGradient1242)" stroke-width="3.5"></path><path d="M257.25 619.5 a5.25 5.25 0 1 0 10.5 0 a5.25 5.25 0 1 0 -10.5 0zM194.25 934.5 a5.25 5.25 0 1 0 10.5 0 a5.25 5.25 0 1 0 -10.5 0zM236.25 1228.5 a5.25 5.25 0 1 0 10.5 0 a5.25 5.25 0 1 0 -10.5 0zM236.25 745.5 a5.25 5.25 0 1 0 10.5 0 a5.25 5.25 0 1 0 -10.5 0zM257.25 1186.5 a5.25 5.25 0 1 0 10.5 0 a5.25 5.25 0 1 0 -10.5 0zM257.25 1417.5 a5.25 5.25 0 1 0 10.5 0 a5.25 5.25 0 1 0 -10.5 0zM236.25 871.5 a5.25 5.25 0 1 0 10.5 0 a5.25 5.25 0 1 0 -10.5 0zM215.25 556.5 a5.25 5.25 0 1 0 10.5 0 a5.25 5.25 0 1 0 -10.5 0zM173.25 850.5 a5.25 5.25 0 1 0 10.5 0 a5.25 5.25 0 1 0 -10.5 0zM194.25 1081.5 a5.25 5.25 0 1 0 10.5 0 a5.25 5.25 0 1 0 -10.5 0zM236.25 997.5 a5.25 5.25 0 1 0 10.5 0 a5.25 5.25 0 1 0 -10.5 0z" fill="url(#SvgjsLinearGradient1242)"></path><path d="M304.5 1459.5L304.5 1438.5L304.5 1417.5L304.5 1396.5L304.5 1375.5" stroke="url(#SvgjsLinearGradient1242)" stroke-width="3.5"></path><path d="M299.25 1375.5 a5.25 5.25 0 1 0 10.5 0 a5.25 5.25 0 1 0 -10.5 0z" fill="url(#SvgjsLinearGradient1242)"></path><path d="M325.5 913.5L346.5 892.5L346.5 871.5M325.5 1060.5L346.5 1039.5L346.5 1018.5L346.5 997.5L346.5 976.5L346.5 955.5L346.5 934.5L367.5 913.5L367.5 892.5M388.5 556.5L409.5 535.5L409.5 514.5L409.5 493.5L409.5 472.5L388.5 451.5L388.5 430.5L388.5 409.5L388.5 388.5L388.5 367.5L388.5 346.5L388.5 325.5L388.5 304.5M346.5 808.5L367.5 787.5L367.5 766.5L367.5 745.5L388.5 724.5L388.5 703.5L388.5 682.5L388.5 661.5L388.5 640.5L388.5 619.5M325.5 1165.5L346.5 1144.5L346.5 1123.5L346.5 1102.5L346.5 1081.5L346.5 1060.5M367.5 661.5L346.5 640.5L346.5 619.5L346.5 598.5L346.5 577.5L346.5 556.5L346.5 535.5M346.5 766.5L325.5 745.5M346.5 787.5L325.5 766.5M388.5 577.5L367.5 556.5L367.5 535.5M346.5 850.5L325.5 829.5L325.5 808.5L325.5 787.5M346.5 745.5L346.5 724.5L346.5 703.5L346.5 682.5L346.5 661.5M325.5 1459.5L325.5 1438.5L325.5 1417.5L325.5 1396.5L325.5 1375.5L325.5 1354.5L325.5 1333.5L325.5 1312.5L325.5 1291.5L325.5 1270.5L325.5 1249.5L325.5 1228.5L325.5 1207.5L325.5 1186.5L325.5 1165.5L325.5 1144.5L325.5 1123.5L325.5 1102.5L325.5 1081.5L325.5 1060.5L325.5 1039.5L325.5 1018.5L325.5 997.5L325.5 976.5L325.5 955.5L325.5 934.5L325.5 913.5L325.5 892.5L325.5 871.5L346.5 850.5L346.5 829.5L346.5 808.5L346.5 787.5L346.5 766.5L346.5 745.5L367.5 724.5L367.5 703.5L367.5 682.5L367.5 661.5L367.5 640.5L367.5 619.5L388.5 598.5L388.5 577.5L388.5 556.5L388.5 535.5L388.5 514.5" stroke="url(#SvgjsLinearGradient1242)" stroke-width="3.5"></path><path d="M383.25 514.5 a5.25 5.25 0 1 0 10.5 0 a5.25 5.25 0 1 0 -10.5 0zM341.25 871.5 a5.25 5.25 0 1 0 10.5 0 a5.25 5.25 0 1 0 -10.5 0zM362.25 892.5 a5.25 5.25 0 1 0 10.5 0 a5.25 5.25 0 1 0 -10.5 0zM383.25 304.5 a5.25 5.25 0 1 0 10.5 0 a5.25 5.25 0 1 0 -10.5 0zM383.25 619.5 a5.25 5.25 0 1 0 10.5 0 a5.25 5.25 0 1 0 -10.5 0zM341.25 1060.5 a5.25 5.25 0 1 0 10.5 0 a5.25 5.25 0 1 0 -10.5 0zM341.25 535.5 a5.25 5.25 0 1 0 10.5 0 a5.25 5.25 0 1 0 -10.5 0zM320.25 745.5 a5.25 5.25 0 1 0 10.5 0 a5.25 5.25 0 1 0 -10.5 0zM320.25 766.5 a5.25 5.25 0 1 0 10.5 0 a5.25 5.25 0 1 0 -10.5 0zM362.25 535.5 a5.25 5.25 0 1 0 10.5 0 a5.25 5.25 0 1 0 -10.5 0zM320.25 787.5 a5.25 5.25 0 1 0 10.5 0 a5.25 5.25 0 1 0 -10.5 0zM341.25 661.5 a5.25 5.25 0 1 0 10.5 0 a5.25 5.25 0 1 0 -10.5 0z" fill="url(#SvgjsLinearGradient1242)"></path><path d="M220.5 1228.5L220.5 1207.5L220.5 1186.5L220.5 1165.5M220.5 1333.5L199.5 1312.5M220.5 1459.5L220.5 1438.5L220.5 1417.5L220.5 1396.5L220.5 1375.5L220.5 1354.5L220.5 1333.5L220.5 1312.5L220.5 1291.5L220.5 1270.5L220.5 1249.5L220.5 1228.5L241.5 1207.5" stroke="url(#SvgjsLinearGradient1242)" stroke-width="3.5"></path><path d="M236.25 1207.5 a5.25 5.25 0 1 0 10.5 0 a5.25 5.25 0 1 0 -10.5 0zM215.25 1165.5 a5.25 5.25 0 1 0 10.5 0 a5.25 5.25 0 1 0 -10.5 0zM194.25 1312.5 a5.25 5.25 0 1 0 10.5 0 a5.25 5.25 0 1 0 -10.5 0z" fill="url(#SvgjsLinearGradient1242)"></path><path d="M346.5 1270.5L367.5 1249.5L367.5 1228.5L367.5 1207.5M367.5 1186.5L346.5 1165.5M346.5 1207.5L346.5 1186.5M346.5 1291.5L367.5 1270.5M346.5 1459.5L346.5 1438.5L346.5 1417.5L346.5 1396.5L346.5 1375.5L346.5 1354.5L346.5 1333.5L346.5 1312.5L346.5 1291.5L346.5 1270.5L346.5 1249.5L346.5 1228.5L346.5 1207.5L367.5 1186.5L367.5 1165.5L367.5 1144.5L367.5 1123.5L367.5 1102.5L367.5 1081.5L367.5 1060.5L367.5 1039.5L367.5 1018.5L367.5 997.5L367.5 976.5" stroke="url(#SvgjsLinearGradient1242)" stroke-width="3.5"></path><path d="M362.25 976.5 a5.25 5.25 0 1 0 10.5 0 a5.25 5.25 0 1 0 -10.5 0zM362.25 1207.5 a5.25 5.25 0 1 0 10.5 0 a5.25 5.25 0 1 0 -10.5 0zM341.25 1165.5 a5.25 5.25 0 1 0 10.5 0 a5.25 5.25 0 1 0 -10.5 0zM341.25 1186.5 a5.25 5.25 0 1 0 10.5 0 a5.25 5.25 0 1 0 -10.5 0zM362.25 1270.5 a5.25 5.25 0 1 0 10.5 0 a5.25 5.25 0 1 0 -10.5 0z" fill="url(#SvgjsLinearGradient1242)"></path><path d="M136.5 640.5L115.5 619.5L115.5 598.5L115.5 577.5M136.5 1018.5L157.5 997.5L157.5 976.5L157.5 955.5L157.5 934.5L157.5 913.5L157.5 892.5L157.5 871.5L157.5 850.5M199.5 1207.5L178.5 1186.5M178.5 1312.5L178.5 1291.5L178.5 1270.5L178.5 1249.5L178.5 1228.5M136.5 934.5L115.5 913.5L115.5 892.5L115.5 871.5L115.5 850.5L115.5 829.5L115.5 808.5L115.5 787.5L115.5 766.5M136.5 745.5L115.5 724.5L115.5 703.5L115.5 682.5L115.5 661.5L115.5 640.5L94.5 619.5L94.5 598.5L94.5 577.5L115.5 556.5L115.5 535.5L115.5 514.5L115.5 493.5L115.5 472.5M136.5 472.5L157.5 451.5L157.5 430.5L157.5 409.5M136.5 808.5L157.5 787.5L157.5 766.5L157.5 745.5L157.5 724.5L157.5 703.5L157.5 682.5L178.5 661.5L178.5 640.5L178.5 619.5L178.5 598.5M157.5 1081.5L178.5 1060.5L178.5 1039.5L178.5 1018.5L178.5 997.5L178.5 976.5M136.5 577.5L157.5 556.5L157.5 535.5L157.5 514.5L157.5 493.5L157.5 472.5L178.5 451.5L178.5 430.5L178.5 409.5L178.5 388.5L178.5 367.5M136.5 997.5L115.5 976.5L115.5 955.5L115.5 934.5L94.5 913.5L94.5 892.5L94.5 871.5L94.5 850.5L94.5 829.5L73.5 808.5L73.5 787.5L52.5 766.5M157.5 1123.5L178.5 1102.5L178.5 1081.5M199.5 1459.5L199.5 1438.5L199.5 1417.5L199.5 1396.5L199.5 1375.5L178.5 1354.5L178.5 1333.5L178.5 1312.5L199.5 1291.5L199.5 1270.5L199.5 1249.5L199.5 1228.5L199.5 1207.5L199.5 1186.5L178.5 1165.5L157.5 1144.5L157.5 1123.5L157.5 1102.5L157.5 1081.5L157.5 1060.5L157.5 1039.5L136.5 1018.5L136.5 997.5L136.5 976.5L136.5 955.5L136.5 934.5L136.5 913.5L136.5 892.5L136.5 871.5L136.5 850.5L136.5 829.5L136.5 808.5L136.5 787.5L136.5 766.5L136.5 745.5L136.5 724.5L136.5 703.5L136.5 682.5L136.5 661.5L136.5 640.5L136.5 619.5L136.5 598.5L136.5 577.5L136.5 556.5L136.5 535.5L136.5 514.5L136.5 493.5L136.5 472.5L136.5 451.5L136.5 430.5" stroke="url(#SvgjsLinearGradient1242)" stroke-width="3.5"></path><path d="M131.25 430.5 a5.25 5.25 0 1 0 10.5 0 a5.25 5.25 0 1 0 -10.5 0zM110.25 577.5 a5.25 5.25 0 1 0 10.5 0 a5.25 5.25 0 1 0 -10.5 0zM152.25 850.5 a5.25 5.25 0 1 0 10.5 0 a5.25 5.25 0 1 0 -10.5 0zM173.25 1186.5 a5.25 5.25 0 1 0 10.5 0 a5.25 5.25 0 1 0 -10.5 0zM173.25 1228.5 a5.25 5.25 0 1 0 10.5 0 a5.25 5.25 0 1 0 -10.5 0zM110.25 766.5 a5.25 5.25 0 1 0 10.5 0 a5.25 5.25 0 1 0 -10.5 0zM110.25 472.5 a5.25 5.25 0 1 0 10.5 0 a5.25 5.25 0 1 0 -10.5 0zM152.25 409.5 a5.25 5.25 0 1 0 10.5 0 a5.25 5.25 0 1 0 -10.5 0zM173.25 598.5 a5.25 5.25 0 1 0 10.5 0 a5.25 5.25 0 1 0 -10.5 0zM173.25 976.5 a5.25 5.25 0 1 0 10.5 0 a5.25 5.25 0 1 0 -10.5 0zM173.25 367.5 a5.25 5.25 0 1 0 10.5 0 a5.25 5.25 0 1 0 -10.5 0zM47.25 766.5 a5.25 5.25 0 1 0 10.5 0 a5.25 5.25 0 1 0 -10.5 0zM173.25 1081.5 a5.25 5.25 0 1 0 10.5 0 a5.25 5.25 0 1 0 -10.5 0z" fill="url(#SvgjsLinearGradient1242)"></path><path d="M430.5 619.5L409.5 598.5L409.5 577.5L409.5 556.5L430.5 535.5L430.5 514.5L430.5 493.5L430.5 472.5L430.5 451.5L430.5 430.5L430.5 409.5L430.5 388.5M430.5 787.5L409.5 766.5L409.5 745.5L409.5 724.5L409.5 703.5L409.5 682.5M409.5 892.5L388.5 871.5L388.5 850.5L388.5 829.5L367.5 808.5M409.5 913.5L388.5 892.5M430.5 682.5L451.5 661.5M430.5 766.5L451.5 745.5L451.5 724.5L451.5 703.5L451.5 682.5M388.5 997.5L388.5 976.5L388.5 955.5L388.5 934.5M409.5 871.5L409.5 850.5L409.5 829.5L409.5 808.5L409.5 787.5L388.5 766.5L388.5 745.5M367.5 1312.5L367.5 1291.5M430.5 661.5L409.5 640.5L409.5 619.5M367.5 1459.5L367.5 1438.5L367.5 1417.5L367.5 1396.5L367.5 1375.5L367.5 1354.5L367.5 1333.5L367.5 1312.5L388.5 1291.5L388.5 1270.5L388.5 1249.5L388.5 1228.5L388.5 1207.5L388.5 1186.5L388.5 1165.5L388.5 1144.5L388.5 1123.5L388.5 1102.5L388.5 1081.5L388.5 1060.5L388.5 1039.5L388.5 1018.5L388.5 997.5L409.5 976.5L409.5 955.5L409.5 934.5L409.5 913.5L409.5 892.5L409.5 871.5L430.5 850.5L430.5 829.5L430.5 808.5L430.5 787.5L430.5 766.5L430.5 745.5L430.5 724.5L430.5 703.5L430.5 682.5L430.5 661.5L430.5 640.5L430.5 619.5L430.5 598.5L430.5 577.5" stroke="url(#SvgjsLinearGradient1242)" stroke-width="3.5"></path><path d="M425.25 577.5 a5.25 5.25 0 1 0 10.5 0 a5.25 5.25 0 1 0 -10.5 0zM425.25 388.5 a5.25 5.25 0 1 0 10.5 0 a5.25 5.25 0 1 0 -10.5 0zM404.25 682.5 a5.25 5.25 0 1 0 10.5 0 a5.25 5.25 0 1 0 -10.5 0zM362.25 808.5 a5.25 5.25 0 1 0 10.5 0 a5.25 5.25 0 1 0 -10.5 0zM383.25 892.5 a5.25 5.25 0 1 0 10.5 0 a5.25 5.25 0 1 0 -10.5 0zM446.25 661.5 a5.25 5.25 0 1 0 10.5 0 a5.25 5.25 0 1 0 -10.5 0zM446.25 682.5 a5.25 5.25 0 1 0 10.5 0 a5.25 5.25 0 1 0 -10.5 0zM383.25 934.5 a5.25 5.25 0 1 0 10.5 0 a5.25 5.25 0 1 0 -10.5 0zM383.25 745.5 a5.25 5.25 0 1 0 10.5 0 a5.25 5.25 0 1 0 -10.5 0zM362.25 1291.5 a5.25 5.25 0 1 0 10.5 0 a5.25 5.25 0 1 0 -10.5 0zM404.25 619.5 a5.25 5.25 0 1 0 10.5 0 a5.25 5.25 0 1 0 -10.5 0z" fill="url(#SvgjsLinearGradient1242)"></path><path d="M157.5 1186.5L136.5 1165.5M157.5 1270.5L136.5 1249.5M178.5 1417.5L157.5 1396.5M157.5 1333.5L136.5 1312.5L136.5 1291.5L136.5 1270.5L115.5 1249.5L94.5 1228.5M178.5 1459.5L178.5 1438.5L178.5 1417.5L178.5 1396.5L178.5 1375.5L157.5 1354.5L157.5 1333.5L157.5 1312.5L157.5 1291.5L157.5 1270.5L157.5 1249.5L157.5 1228.5L157.5 1207.5L157.5 1186.5L157.5 1165.5L136.5 1144.5L136.5 1123.5" stroke="url(#SvgjsLinearGradient1242)" stroke-width="3.5"></path><path d="M131.25 1123.5 a5.25 5.25 0 1 0 10.5 0 a5.25 5.25 0 1 0 -10.5 0zM131.25 1165.5 a5.25 5.25 0 1 0 10.5 0 a5.25 5.25 0 1 0 -10.5 0zM131.25 1249.5 a5.25 5.25 0 1 0 10.5 0 a5.25 5.25 0 1 0 -10.5 0zM152.25 1396.5 a5.25 5.25 0 1 0 10.5 0 a5.25 5.25 0 1 0 -10.5 0zM89.25 1228.5 a5.25 5.25 0 1 0 10.5 0 a5.25 5.25 0 1 0 -10.5 0z" fill="url(#SvgjsLinearGradient1242)"></path><path d="M409.5 1270.5L430.5 1249.5L430.5 1228.5L430.5 1207.5L430.5 1186.5M409.5 1081.5L430.5 1060.5L451.5 1039.5L451.5 1018.5L451.5 997.5L451.5 976.5L451.5 955.5M451.5 598.5L472.5 577.5L472.5 556.5L472.5 535.5L472.5 514.5L472.5 493.5L472.5 472.5L472.5 451.5L472.5 430.5M451.5 640.5L472.5 619.5L472.5 598.5L493.5 577.5L514.5 556.5L514.5 535.5L493.5 514.5M430.5 934.5L451.5 913.5L451.5 892.5L451.5 871.5L472.5 850.5M472.5 661.5L472.5 640.5L493.5 619.5L493.5 598.5M388.5 1333.5L409.5 1312.5L430.5 1291.5L430.5 1270.5L451.5 1249.5M472.5 682.5L493.5 661.5M388.5 1438.5L409.5 1417.5L409.5 1396.5L409.5 1375.5L409.5 1354.5M472.5 745.5L493.5 724.5L493.5 703.5L493.5 682.5L514.5 661.5L514.5 640.5L514.5 619.5L514.5 598.5L514.5 577.5M451.5 787.5L451.5 766.5M388.5 1459.5L388.5 1438.5L388.5 1417.5L388.5 1396.5L388.5 1375.5L388.5 1354.5L388.5 1333.5L388.5 1312.5L409.5 1291.5L409.5 1270.5L409.5 1249.5L409.5 1228.5L409.5 1207.5L409.5 1186.5L409.5 1165.5L409.5 1144.5L409.5 1123.5L409.5 1102.5L409.5 1081.5L409.5 1060.5L409.5 1039.5L409.5 1018.5L409.5 997.5L430.5 976.5L430.5 955.5L430.5 934.5L430.5 913.5L430.5 892.5L430.5 871.5L451.5 850.5L451.5 829.5L451.5 808.5L451.5 787.5L472.5 766.5L472.5 745.5L472.5 724.5L472.5 703.5L472.5 682.5L472.5 661.5L451.5 640.5L451.5 619.5L451.5 598.5L451.5 577.5L451.5 556.5" stroke="url(#SvgjsLinearGradient1242)" stroke-width="3.5"></path><path d="M446.25 556.5 a5.25 5.25 0 1 0 10.5 0 a5.25 5.25 0 1 0 -10.5 0zM425.25 1186.5 a5.25 5.25 0 1 0 10.5 0 a5.25 5.25 0 1 0 -10.5 0zM446.25 955.5 a5.25 5.25 0 1 0 10.5 0 a5.25 5.25 0 1 0 -10.5 0zM467.25 430.5 a5.25 5.25 0 1 0 10.5 0 a5.25 5.25 0 1 0 -10.5 0zM488.25 514.5 a5.25 5.25 0 1 0 10.5 0 a5.25 5.25 0 1 0 -10.5 0zM467.25 850.5 a5.25 5.25 0 1 0 10.5 0 a5.25 5.25 0 1 0 -10.5 0zM488.25 598.5 a5.25 5.25 0 1 0 10.5 0 a5.25 5.25 0 1 0 -10.5 0zM446.25 1249.5 a5.25 5.25 0 1 0 10.5 0 a5.25 5.25 0 1 0 -10.5 0zM488.25 661.5 a5.25 5.25 0 1 0 10.5 0 a5.25 5.25 0 1 0 -10.5 0zM404.25 1354.5 a5.25 5.25 0 1 0 10.5 0 a5.25 5.25 0 1 0 -10.5 0zM509.25 577.5 a5.25 5.25 0 1 0 10.5 0 a5.25 5.25 0 1 0 -10.5 0zM446.25 766.5 a5.25 5.25 0 1 0 10.5 0 a5.25 5.25 0 1 0 -10.5 0z" fill="url(#SvgjsLinearGradient1242)"></path><path d="M157.5 1459.5L157.5 1438.5" stroke="url(#SvgjsLinearGradient1242)" stroke-width="3.5"></path><path d="M152.25 1438.5 a5.25 5.25 0 1 0 10.5 0 a5.25 5.25 0 1 0 -10.5 0z" fill="url(#SvgjsLinearGradient1242)"></path></g></g><defs><mask id="SvgjsMask1241"><rect width="560" height="1440" fill="#ffffff"></rect></mask><linearGradient x1="280" y1="1440" x2="280" y2="244.79999999999995" gradientUnits="userSpaceOnUse" id="SvgjsLinearGradient1242"><stop stop-color="#3a7cc3" offset="0"></stop><stop stop-color="#dd1133" offset="1"></stop></linearGradient><mask id="SvgjsMask1243"><rect width="560" height="1440" fill="white"></rect><path d="M301.87 535.5 a2.63 2.63 0 1 0 5.26 0 a2.63 2.63 0 1 0 -5.26 0zM280.87 1060.5 a2.63 2.63 0 1 0 5.26 0 a2.63 2.63 0 1 0 -5.26 0zM280.87 724.5 a2.63 2.63 0 1 0 5.26 0 a2.63 2.63 0 1 0 -5.26 0zM280.87 829.5 a2.63 2.63 0 1 0 5.26 0 a2.63 2.63 0 1 0 -5.26 0zM322.87 619.5 a2.63 2.63 0 1 0 5.26 0 a2.63 2.63 0 1 0 -5.26 0zM259.87 1060.5 a2.63 2.63 0 1 0 5.26 0 a2.63 2.63 0 1 0 -5.26 0zM280.87 913.5 a2.63 2.63 0 1 0 5.26 0 a2.63 2.63 0 1 0 -5.26 0zM280.87 493.5 a2.63 2.63 0 1 0 5.26 0 a2.63 2.63 0 1 0 -5.26 0zM280.87 1291.5 a2.63 2.63 0 1 0 5.26 0 a2.63 2.63 0 1 0 -5.26 0zM322.87 514.5 a2.63 2.63 0 1 0 5.26 0 a2.63 2.63 0 1 0 -5.26 0zM259.87 1396.5 a2.63 2.63 0 1 0 5.26 0 a2.63 2.63 0 1 0 -5.26 0zM280.87 1018.5 a2.63 2.63 0 1 0 5.26 0 a2.63 2.63 0 1 0 -5.26 0z" fill="black"></path><path d="M259.87 619.5 a2.63 2.63 0 1 0 5.26 0 a2.63 2.63 0 1 0 -5.26 0zM196.87 934.5 a2.63 2.63 0 1 0 5.26 0 a2.63 2.63 0 1 0 -5.26 0zM238.87 1228.5 a2.63 2.63 0 1 0 5.26 0 a2.63 2.63 0 1 0 -5.26 0zM238.87 745.5 a2.63 2.63 0 1 0 5.26 0 a2.63 2.63 0 1 0 -5.26 0zM259.87 1186.5 a2.63 2.63 0 1 0 5.26 0 a2.63 2.63 0 1 0 -5.26 0zM259.87 1417.5 a2.63 2.63 0 1 0 5.26 0 a2.63 2.63 0 1 0 -5.26 0zM238.87 871.5 a2.63 2.63 0 1 0 5.26 0 a2.63 2.63 0 1 0 -5.26 0zM217.87 556.5 a2.63 2.63 0 1 0 5.26 0 a2.63 2.63 0 1 0 -5.26 0zM175.87 850.5 a2.63 2.63 0 1 0 5.26 0 a2.63 2.63 0 1 0 -5.26 0zM196.87 1081.5 a2.63 2.63 0 1 0 5.26 0 a2.63 2.63 0 1 0 -5.26 0zM238.87 997.5 a2.63 2.63 0 1 0 5.26 0 a2.63 2.63 0 1 0 -5.26 0z" fill="black"></path><path d="M301.87 1375.5 a2.63 2.63 0 1 0 5.26 0 a2.63 2.63 0 1 0 -5.26 0z" fill="black"></path><path d="M385.87 514.5 a2.63 2.63 0 1 0 5.26 0 a2.63 2.63 0 1 0 -5.26 0zM343.87 871.5 a2.63 2.63 0 1 0 5.26 0 a2.63 2.63 0 1 0 -5.26 0zM364.87 892.5 a2.63 2.63 0 1 0 5.26 0 a2.63 2.63 0 1 0 -5.26 0zM385.87 304.5 a2.63 2.63 0 1 0 5.26 0 a2.63 2.63 0 1 0 -5.26 0zM385.87 619.5 a2.63 2.63 0 1 0 5.26 0 a2.63 2.63 0 1 0 -5.26 0zM343.87 1060.5 a2.63 2.63 0 1 0 5.26 0 a2.63 2.63 0 1 0 -5.26 0zM343.87 535.5 a2.63 2.63 0 1 0 5.26 0 a2.63 2.63 0 1 0 -5.26 0zM322.87 745.5 a2.63 2.63 0 1 0 5.26 0 a2.63 2.63 0 1 0 -5.26 0zM322.87 766.5 a2.63 2.63 0 1 0 5.26 0 a2.63 2.63 0 1 0 -5.26 0zM364.87 535.5 a2.63 2.63 0 1 0 5.26 0 a2.63 2.63 0 1 0 -5.26 0zM322.87 787.5 a2.63 2.63 0 1 0 5.26 0 a2.63 2.63 0 1 0 -5.26 0zM343.87 661.5 a2.63 2.63 0 1 0 5.26 0 a2.63 2.63 0 1 0 -5.26 0z" fill="black"></path><path d="M238.87 1207.5 a2.63 2.63 0 1 0 5.26 0 a2.63 2.63 0 1 0 -5.26 0zM217.87 1165.5 a2.63 2.63 0 1 0 5.26 0 a2.63 2.63 0 1 0 -5.26 0zM196.87 1312.5 a2.63 2.63 0 1 0 5.26 0 a2.63 2.63 0 1 0 -5.26 0z" fill="black"></path><path d="M364.87 976.5 a2.63 2.63 0 1 0 5.26 0 a2.63 2.63 0 1 0 -5.26 0zM364.87 1207.5 a2.63 2.63 0 1 0 5.26 0 a2.63 2.63 0 1 0 -5.26 0zM343.87 1165.5 a2.63 2.63 0 1 0 5.26 0 a2.63 2.63 0 1 0 -5.26 0zM343.87 1186.5 a2.63 2.63 0 1 0 5.26 0 a2.63 2.63 0 1 0 -5.26 0zM364.87 1270.5 a2.63 2.63 0 1 0 5.26 0 a2.63 2.63 0 1 0 -5.26 0z" fill="black"></path><path d="M133.87 430.5 a2.63 2.63 0 1 0 5.26 0 a2.63 2.63 0 1 0 -5.26 0zM112.87 577.5 a2.63 2.63 0 1 0 5.26 0 a2.63 2.63 0 1 0 -5.26 0zM154.87 850.5 a2.63 2.63 0 1 0 5.26 0 a2.63 2.63 0 1 0 -5.26 0zM175.87 1186.5 a2.63 2.63 0 1 0 5.26 0 a2.63 2.63 0 1 0 -5.26 0zM175.87 1228.5 a2.63 2.63 0 1 0 5.26 0 a2.63 2.63 0 1 0 -5.26 0zM112.87 766.5 a2.63 2.63 0 1 0 5.26 0 a2.63 2.63 0 1 0 -5.26 0zM112.87 472.5 a2.63 2.63 0 1 0 5.26 0 a2.63 2.63 0 1 0 -5.26 0zM154.87 409.5 a2.63 2.63 0 1 0 5.26 0 a2.63 2.63 0 1 0 -5.26 0zM175.87 598.5 a2.63 2.63 0 1 0 5.26 0 a2.63 2.63 0 1 0 -5.26 0zM175.87 976.5 a2.63 2.63 0 1 0 5.26 0 a2.63 2.63 0 1 0 -5.26 0zM175.87 367.5 a2.63 2.63 0 1 0 5.26 0 a2.63 2.63 0 1 0 -5.26 0zM49.87 766.5 a2.63 2.63 0 1 0 5.26 0 a2.63 2.63 0 1 0 -5.26 0zM175.87 1081.5 a2.63 2.63 0 1 0 5.26 0 a2.63 2.63 0 1 0 -5.26 0z" fill="black"></path><path d="M427.87 577.5 a2.63 2.63 0 1 0 5.26 0 a2.63 2.63 0 1 0 -5.26 0zM427.87 388.5 a2.63 2.63 0 1 0 5.26 0 a2.63 2.63 0 1 0 -5.26 0zM406.87 682.5 a2.63 2.63 0 1 0 5.26 0 a2.63 2.63 0 1 0 -5.26 0zM364.87 808.5 a2.63 2.63 0 1 0 5.26 0 a2.63 2.63 0 1 0 -5.26 0zM385.87 892.5 a2.63 2.63 0 1 0 5.26 0 a2.63 2.63 0 1 0 -5.26 0zM448.87 661.5 a2.63 2.63 0 1 0 5.26 0 a2.63 2.63 0 1 0 -5.26 0zM448.87 682.5 a2.63 2.63 0 1 0 5.26 0 a2.63 2.63 0 1 0 -5.26 0zM385.87 934.5 a2.63 2.63 0 1 0 5.26 0 a2.63 2.63 0 1 0 -5.26 0zM385.87 745.5 a2.63 2.63 0 1 0 5.26 0 a2.63 2.63 0 1 0 -5.26 0zM364.87 1291.5 a2.63 2.63 0 1 0 5.26 0 a2.63 2.63 0 1 0 -5.26 0zM406.87 619.5 a2.63 2.63 0 1 0 5.26 0 a2.63 2.63 0 1 0 -5.26 0z" fill="black"></path><path d="M133.87 1123.5 a2.63 2.63 0 1 0 5.26 0 a2.63 2.63 0 1 0 -5.26 0zM133.87 1165.5 a2.63 2.63 0 1 0 5.26 0 a2.63 2.63 0 1 0 -5.26 0zM133.87 1249.5 a2.63 2.63 0 1 0 5.26 0 a2.63 2.63 0 1 0 -5.26 0zM154.87 1396.5 a2.63 2.63 0 1 0 5.26 0 a2.63 2.63 0 1 0 -5.26 0zM91.87 1228.5 a2.63 2.63 0 1 0 5.26 0 a2.63 2.63 0 1 0 -5.26 0z" fill="black"></path><path d="M448.87 556.5 a2.63 2.63 0 1 0 5.26 0 a2.63 2.63 0 1 0 -5.26 0zM427.87 1186.5 a2.63 2.63 0 1 0 5.26 0 a2.63 2.63 0 1 0 -5.26 0zM448.87 955.5 a2.63 2.63 0 1 0 5.26 0 a2.63 2.63 0 1 0 -5.26 0zM469.87 430.5 a2.63 2.63 0 1 0 5.26 0 a2.63 2.63 0 1 0 -5.26 0zM490.87 514.5 a2.63 2.63 0 1 0 5.26 0 a2.63 2.63 0 1 0 -5.26 0zM469.87 850.5 a2.63 2.63 0 1 0 5.26 0 a2.63 2.63 0 1 0 -5.26 0zM490.87 598.5 a2.63 2.63 0 1 0 5.26 0 a2.63 2.63 0 1 0 -5.26 0zM448.87 1249.5 a2.63 2.63 0 1 0 5.26 0 a2.63 2.63 0 1 0 -5.26 0zM490.87 661.5 a2.63 2.63 0 1 0 5.26 0 a2.63 2.63 0 1 0 -5.26 0zM406.87 1354.5 a2.63 2.63 0 1 0 5.26 0 a2.63 2.63 0 1 0 -5.26 0zM511.87 577.5 a2.63 2.63 0 1 0 5.26 0 a2.63 2.63 0 1 0 -5.26 0zM448.87 766.5 a2.63 2.63 0 1 0 5.26 0 a2.63 2.63 0 1 0 -5.26 0z" fill="black"></path><path d="M154.87 1438.5 a2.63 2.63 0 1 0 5.26 0 a2.63 2.63 0 1 0 -5.26 0z" fill="black"></path></mask></defs></svg>