<svg xmlns="http://www.w3.org/2000/svg" version="1.1" xmlns:xlink="http://www.w3.org/1999/xlink" xmlns:svgjs="http://svgjs.com/svgjs" width="400" height="1325" preserveAspectRatio="none" viewBox="0 0 400 1325"><g mask="url(&quot;#SvgjsMask2429&quot;)" fill="none"><rect width="400" height="1325" x="0" y="0" fill="#0e2a47"></rect><g mask="url(&quot;#SvgjsMask2430&quot;)"><path d="M375 735L75 1035L75 1305" stroke-width="5" stroke="rgba(0, 79, 182, 1)"></path><path d="M367.5 735 a7.5 7.5 0 1 0 15 0 a7.5 7.5 0 1 0 -15 0zM67.5 1305 a7.5 7.5 0 1 0 15 0 a7.5 7.5 0 1 0 -15 0z" fill="rgba(0, 79, 182, 1)"></path><path d="M225 1245L405 1065L405 915L315 825" stroke-width="5" stroke="rgba(0, 79, 182, 1)"></path><path d="M217.5 1245 a7.5 7.5 0 1 0 15 0 a7.5 7.5 0 1 0 -15 0zM307.5 825 a7.5 7.5 0 1 0 15 0 a7.5 7.5 0 1 0 -15 0z" fill="rgba(0, 79, 182, 1)"></path><path d="M195 225L15 45L15 15" stroke-width="5" stroke="rgba(0, 79, 182, 1)"></path><path d="M187.5 225 a7.5 7.5 0 1 0 15 0 a7.5 7.5 0 1 0 -15 0zM7.5 15 a7.5 7.5 0 1 0 15 0 a7.5 7.5 0 1 0 -15 0z" fill="rgba(0, 79, 182, 1)"></path><path d="M375 525L405 555L405 585L375 615L195 615L15 435L15 315" stroke-width="5" stroke="rgba(0, 79, 182, 1)"></path><path d="M367.5 525 a7.5 7.5 0 1 0 15 0 a7.5 7.5 0 1 0 -15 0zM7.5 315 a7.5 7.5 0 1 0 15 0 a7.5 7.5 0 1 0 -15 0z" fill="rgba(0, 79, 182, 1)"></path><path d="M15 1305L45 1305L75 1335L405 1335" stroke-width="5" stroke="rgba(0, 79, 182, 1)"></path><path d="M7.5 1305 a7.5 7.5 0 1 0 15 0 a7.5 7.5 0 1 0 -15 0zM397.5 1335 a7.5 7.5 0 1 0 15 0 a7.5 7.5 0 1 0 -15 0z" fill="rgba(0, 79, 182, 1)"></path><path d="M285 195L405 195" stroke-width="5" stroke="rgba(0, 79, 182, 1)"></path><path d="M277.5 195 a7.5 7.5 0 1 0 15 0 a7.5 7.5 0 1 0 -15 0zM397.5 195 a7.5 7.5 0 1 0 15 0 a7.5 7.5 0 1 0 -15 0z" fill="rgba(0, 79, 182, 1)"></path><path d="M135 135L255 255L315 255L405 345L405 525" stroke-width="5" stroke="rgba(0, 79, 182, 1)"></path><path d="M127.5 135 a7.5 7.5 0 1 0 15 0 a7.5 7.5 0 1 0 -15 0zM397.5 525 a7.5 7.5 0 1 0 15 0 a7.5 7.5 0 1 0 -15 0z" fill="rgba(0, 79, 182, 1)"></path><path d="M225 405L225 255" stroke-width="5" stroke="rgba(0, 79, 182, 1)"></path><path d="M217.5 405 a7.5 7.5 0 1 0 15 0 a7.5 7.5 0 1 0 -15 0zM217.5 255 a7.5 7.5 0 1 0 15 0 a7.5 7.5 0 1 0 -15 0z" fill="rgba(0, 79, 182, 1)"></path><path d="M105 495L195 585L375 585" stroke-width="5" stroke="rgba(0, 79, 182, 1)"></path><path d="M97.5 495 a7.5 7.5 0 1 0 15 0 a7.5 7.5 0 1 0 -15 0zM367.5 585 a7.5 7.5 0 1 0 15 0 a7.5 7.5 0 1 0 -15 0z" fill="rgba(0, 79, 182, 1)"></path><path d="M135 1095L135 1275L105 1305" stroke-width="5" stroke="rgba(0, 79, 182, 1)"></path><path d="M127.5 1095 a7.5 7.5 0 1 0 15 0 a7.5 7.5 0 1 0 -15 0zM97.5 1305 a7.5 7.5 0 1 0 15 0 a7.5 7.5 0 1 0 -15 0z" fill="rgba(0, 79, 182, 1)"></path><path d="M375 285L315 225L255 225L225 195L225 15" stroke-width="5" stroke="rgba(0, 79, 182, 1)"></path><path d="M367.5 285 a7.5 7.5 0 1 0 15 0 a7.5 7.5 0 1 0 -15 0zM217.5 15 a7.5 7.5 0 1 0 15 0 a7.5 7.5 0 1 0 -15 0z" fill="rgba(0, 79, 182, 1)"></path><path d="M165 75L195 105L195 165" stroke-width="5" stroke="rgba(0, 79, 182, 1)"></path><path d="M157.5 75 a7.5 7.5 0 1 0 15 0 a7.5 7.5 0 1 0 -15 0zM187.5 165 a7.5 7.5 0 1 0 15 0 a7.5 7.5 0 1 0 -15 0z" fill="rgba(0, 79, 182, 1)"></path><path d="M15 585L15 1155" stroke-width="5" stroke="rgba(0, 79, 182, 1)"></path><path d="M7.5 585 a7.5 7.5 0 1 0 15 0 a7.5 7.5 0 1 0 -15 0zM7.5 1155 a7.5 7.5 0 1 0 15 0 a7.5 7.5 0 1 0 -15 0z" fill="rgba(0, 79, 182, 1)"></path><path d="M165 975L105 1035L105 1275" stroke-width="5" stroke="rgba(0, 79, 182, 1)"></path><path d="M157.5 975 a7.5 7.5 0 1 0 15 0 a7.5 7.5 0 1 0 -15 0zM97.5 1275 a7.5 7.5 0 1 0 15 0 a7.5 7.5 0 1 0 -15 0z" fill="rgba(0, 79, 182, 1)"></path><path d="M165 45L45 45" stroke-width="5" stroke="rgba(0, 79, 182, 1)"></path><path d="M157.5 45 a7.5 7.5 0 1 0 15 0 a7.5 7.5 0 1 0 -15 0zM37.5 45 a7.5 7.5 0 1 0 15 0 a7.5 7.5 0 1 0 -15 0z" fill="rgba(0, 79, 182, 1)"></path><path d="M345 435L255 345L255 285" stroke-width="5" stroke="rgba(0, 79, 182, 1)"></path><path d="M337.5 435 a7.5 7.5 0 1 0 15 0 a7.5 7.5 0 1 0 -15 0zM247.5 285 a7.5 7.5 0 1 0 15 0 a7.5 7.5 0 1 0 -15 0z" fill="rgba(0, 79, 182, 1)"></path><path d="M105 915L105 675L45 615L45 495L15 465" stroke-width="5" stroke="rgba(0, 79, 182, 1)"></path><path d="M97.5 915 a7.5 7.5 0 1 0 15 0 a7.5 7.5 0 1 0 -15 0zM7.5 465 a7.5 7.5 0 1 0 15 0 a7.5 7.5 0 1 0 -15 0z" fill="rgba(0, 79, 182, 1)"></path><path d="M75 255L195 375L195 405L135 465L135 495L195 555L375 555" stroke-width="5" stroke="rgba(0, 79, 182, 1)"></path><path d="M67.5 255 a7.5 7.5 0 1 0 15 0 a7.5 7.5 0 1 0 -15 0zM367.5 555 a7.5 7.5 0 1 0 15 0 a7.5 7.5 0 1 0 -15 0z" fill="rgba(0, 79, 182, 1)"></path><path d="M405 105L405 15" stroke-width="5" stroke="rgba(0, 79, 182, 1)"></path><path d="M397.5 105 a7.5 7.5 0 1 0 15 0 a7.5 7.5 0 1 0 -15 0zM397.5 15 a7.5 7.5 0 1 0 15 0 a7.5 7.5 0 1 0 -15 0z" fill="rgba(0, 79, 182, 1)"></path><path d="M165 645L165 615L75 525" stroke-width="5" stroke="rgba(0, 79, 182, 1)"></path><path d="M157.5 645 a7.5 7.5 0 1 0 15 0 a7.5 7.5 0 1 0 -15 0zM67.5 525 a7.5 7.5 0 1 0 15 0 a7.5 7.5 0 1 0 -15 0z" fill="rgba(0, 79, 182, 1)"></path><path d="M75 615L75 555" stroke-width="5" stroke="rgba(0, 79, 182, 1)"></path><path d="M67.5 615 a7.5 7.5 0 1 0 15 0 a7.5 7.5 0 1 0 -15 0zM67.5 555 a7.5 7.5 0 1 0 15 0 a7.5 7.5 0 1 0 -15 0z" fill="rgba(0, 79, 182, 1)"></path><path d="M45 1185L45 1215L15 1245L15 1275" stroke-width="5" stroke="rgba(0, 79, 182, 1)"></path><path d="M37.5 1185 a7.5 7.5 0 1 0 15 0 a7.5 7.5 0 1 0 -15 0zM7.5 1275 a7.5 7.5 0 1 0 15 0 a7.5 7.5 0 1 0 -15 0z" fill="rgba(0, 79, 182, 1)"></path><path d="M315 465L375 465" stroke-width="5" stroke="rgba(0, 79, 182, 1)"></path><path d="M307.5 465 a7.5 7.5 0 1 0 15 0 a7.5 7.5 0 1 0 -15 0zM367.5 465 a7.5 7.5 0 1 0 15 0 a7.5 7.5 0 1 0 -15 0z" fill="rgba(0, 79, 182, 1)"></path><path d="M345 1035L165 1215" stroke-width="5" stroke="rgba(0, 79, 182, 1)"></path><path d="M337.5 1035 a7.5 7.5 0 1 0 15 0 a7.5 7.5 0 1 0 -15 0zM157.5 1215 a7.5 7.5 0 1 0 15 0 a7.5 7.5 0 1 0 -15 0z" fill="rgba(0, 79, 182, 1)"></path><path d="M285 465L225 465L195 495L165 495" stroke-width="5" stroke="rgba(0, 79, 182, 1)"></path><path d="M277.5 465 a7.5 7.5 0 1 0 15 0 a7.5 7.5 0 1 0 -15 0zM157.5 495 a7.5 7.5 0 1 0 15 0 a7.5 7.5 0 1 0 -15 0z" fill="rgba(0, 79, 182, 1)"></path><path d="M15 165L105 165L195 255L195 345" stroke-width="5" stroke="rgba(0, 79, 182, 1)"></path><path d="M7.5 165 a7.5 7.5 0 1 0 15 0 a7.5 7.5 0 1 0 -15 0zM187.5 345 a7.5 7.5 0 1 0 15 0 a7.5 7.5 0 1 0 -15 0z" fill="rgba(0, 79, 182, 1)"></path><path d="M375 825L405 795L405 705L345 645L195 645L135 705L135 885" stroke-width="5" stroke="rgba(0, 79, 182, 1)"></path><path d="M367.5 825 a7.5 7.5 0 1 0 15 0 a7.5 7.5 0 1 0 -15 0zM127.5 885 a7.5 7.5 0 1 0 15 0 a7.5 7.5 0 1 0 -15 0z" fill="rgba(0, 79, 182, 1)"></path><path d="M375 105L285 15L255 15" stroke-width="5" stroke="rgba(0, 79, 182, 1)"></path><path d="M367.5 105 a7.5 7.5 0 1 0 15 0 a7.5 7.5 0 1 0 -15 0zM247.5 15 a7.5 7.5 0 1 0 15 0 a7.5 7.5 0 1 0 -15 0z" fill="rgba(0, 79, 182, 1)"></path><path d="M315 315L315 375L375 435" stroke-width="5" stroke="rgba(0, 79, 182, 1)"></path><path d="M307.5 315 a7.5 7.5 0 1 0 15 0 a7.5 7.5 0 1 0 -15 0zM367.5 435 a7.5 7.5 0 1 0 15 0 a7.5 7.5 0 1 0 -15 0z" fill="rgba(0, 79, 182, 1)"></path><path d="M345 1245L345 1155L405 1095" stroke-width="5" stroke="rgba(0, 79, 182, 1)"></path><path d="M337.5 1245 a7.5 7.5 0 1 0 15 0 a7.5 7.5 0 1 0 -15 0zM397.5 1095 a7.5 7.5 0 1 0 15 0 a7.5 7.5 0 1 0 -15 0z" fill="rgba(0, 79, 182, 1)"></path><path d="M405 1275L375 1245L375 1155L405 1125" stroke-width="5" stroke="rgba(0, 79, 182, 1)"></path><path d="M397.5 1275 a7.5 7.5 0 1 0 15 0 a7.5 7.5 0 1 0 -15 0zM397.5 1125 a7.5 7.5 0 1 0 15 0 a7.5 7.5 0 1 0 -15 0z" fill="rgba(0, 79, 182, 1)"></path><path d="M225 765L165 765" stroke-width="5" stroke="rgba(0, 79, 182, 1)"></path><path d="M217.5 765 a7.5 7.5 0 1 0 15 0 a7.5 7.5 0 1 0 -15 0zM157.5 765 a7.5 7.5 0 1 0 15 0 a7.5 7.5 0 1 0 -15 0z" fill="rgba(0, 79, 182, 1)"></path><path d="M75 825L75 1005L45 1035L45 1155" stroke-width="5" stroke="rgba(0, 79, 182, 1)"></path><path d="M67.5 825 a7.5 7.5 0 1 0 15 0 a7.5 7.5 0 1 0 -15 0zM37.5 1155 a7.5 7.5 0 1 0 15 0 a7.5 7.5 0 1 0 -15 0z" fill="rgba(0, 79, 182, 1)"></path><path d="M45 195L105 195L165 255L165 315" stroke-width="5" stroke="rgba(0, 79, 182, 1)"></path><path d="M37.5 195 a7.5 7.5 0 1 0 15 0 a7.5 7.5 0 1 0 -15 0zM157.5 315 a7.5 7.5 0 1 0 15 0 a7.5 7.5 0 1 0 -15 0z" fill="rgba(0, 79, 182, 1)"></path><path d="M375 75L375 15" stroke-width="5" stroke="rgba(0, 79, 182, 1)"></path><path d="M367.5 75 a7.5 7.5 0 1 0 15 0 a7.5 7.5 0 1 0 -15 0zM367.5 15 a7.5 7.5 0 1 0 15 0 a7.5 7.5 0 1 0 -15 0z" fill="rgba(0, 79, 182, 1)"></path><path d="M75 795L45 825L45 1005" stroke-width="5" stroke="rgba(0, 79, 182, 1)"></path><path d="M67.5 795 a7.5 7.5 0 1 0 15 0 a7.5 7.5 0 1 0 -15 0zM37.5 1005 a7.5 7.5 0 1 0 15 0 a7.5 7.5 0 1 0 -15 0z" fill="rgba(0, 79, 182, 1)"></path><path d="M75 705L75 765L45 795" stroke-width="5" stroke="rgba(0, 79, 182, 1)"></path><path d="M67.5 705 a7.5 7.5 0 1 0 15 0 a7.5 7.5 0 1 0 -15 0zM37.5 795 a7.5 7.5 0 1 0 15 0 a7.5 7.5 0 1 0 -15 0z" fill="rgba(0, 79, 182, 1)"></path><path d="M105 315L105 345L45 405" stroke-width="5" stroke="rgba(0, 79, 182, 1)"></path><path d="M97.5 315 a7.5 7.5 0 1 0 15 0 a7.5 7.5 0 1 0 -15 0zM37.5 405 a7.5 7.5 0 1 0 15 0 a7.5 7.5 0 1 0 -15 0z" fill="rgba(0, 79, 182, 1)"></path><path d="M225 675L165 735" stroke-width="5" stroke="rgba(0, 79, 182, 1)"></path><path d="M217.5 675 a7.5 7.5 0 1 0 15 0 a7.5 7.5 0 1 0 -15 0zM157.5 735 a7.5 7.5 0 1 0 15 0 a7.5 7.5 0 1 0 -15 0z" fill="rgba(0, 79, 182, 1)"></path><path d="M225 1035L255 1065L255 1095L165 1185" stroke-width="5" stroke="rgba(0, 79, 182, 1)"></path><path d="M217.5 1035 a7.5 7.5 0 1 0 15 0 a7.5 7.5 0 1 0 -15 0zM157.5 1185 a7.5 7.5 0 1 0 15 0 a7.5 7.5 0 1 0 -15 0z" fill="rgba(0, 79, 182, 1)"></path><path d="M375 1035L375 915" stroke-width="5" stroke="rgba(0, 79, 182, 1)"></path><path d="M367.5 1035 a7.5 7.5 0 1 0 15 0 a7.5 7.5 0 1 0 -15 0zM367.5 915 a7.5 7.5 0 1 0 15 0 a7.5 7.5 0 1 0 -15 0z" fill="rgba(0, 79, 182, 1)"></path><path d="M135 345L165 375L165 405L135 435" stroke-width="5" stroke="rgba(0, 79, 182, 1)"></path><path d="M127.5 345 a7.5 7.5 0 1 0 15 0 a7.5 7.5 0 1 0 -15 0zM127.5 435 a7.5 7.5 0 1 0 15 0 a7.5 7.5 0 1 0 -15 0z" fill="rgba(0, 79, 182, 1)"></path><path d="M375 375L345 345L345 315" stroke-width="5" stroke="rgba(0, 79, 182, 1)"></path><path d="M367.5 375 a7.5 7.5 0 1 0 15 0 a7.5 7.5 0 1 0 -15 0zM337.5 315 a7.5 7.5 0 1 0 15 0 a7.5 7.5 0 1 0 -15 0z" fill="rgba(0, 79, 182, 1)"></path><path d="M375 165L255 45" stroke-width="5" stroke="rgba(0, 79, 182, 1)"></path><path d="M367.5 165 a7.5 7.5 0 1 0 15 0 a7.5 7.5 0 1 0 -15 0zM247.5 45 a7.5 7.5 0 1 0 15 0 a7.5 7.5 0 1 0 -15 0z" fill="rgba(0, 79, 182, 1)"></path><path d="M195 795L285 795L375 705" stroke-width="5" stroke="rgba(0, 79, 182, 1)"></path><path d="M187.5 795 a7.5 7.5 0 1 0 15 0 a7.5 7.5 0 1 0 -15 0zM367.5 705 a7.5 7.5 0 1 0 15 0 a7.5 7.5 0 1 0 -15 0z" fill="rgba(0, 79, 182, 1)"></path><path d="M165 1035L165 1005L315 855" stroke-width="5" stroke="rgba(0, 79, 182, 1)"></path><path d="M157.5 1035 a7.5 7.5 0 1 0 15 0 a7.5 7.5 0 1 0 -15 0zM307.5 855 a7.5 7.5 0 1 0 15 0 a7.5 7.5 0 1 0 -15 0z" fill="rgba(0, 79, 182, 1)"></path><path d="M195 885L195 825L165 795" stroke-width="5" stroke="rgba(0, 79, 182, 1)"></path><path d="M187.5 885 a7.5 7.5 0 1 0 15 0 a7.5 7.5 0 1 0 -15 0zM157.5 795 a7.5 7.5 0 1 0 15 0 a7.5 7.5 0 1 0 -15 0z" fill="rgba(0, 79, 182, 1)"></path><path d="M285 1035L315 1035L345 1005L345 915" stroke-width="5" stroke="rgba(0, 79, 182, 1)"></path><path d="M277.5 1035 a7.5 7.5 0 1 0 15 0 a7.5 7.5 0 1 0 -15 0zM337.5 915 a7.5 7.5 0 1 0 15 0 a7.5 7.5 0 1 0 -15 0z" fill="rgba(0, 79, 182, 1)"></path><path d="M315 735L195 735" stroke-width="5" stroke="rgba(0, 79, 182, 1)"></path><path d="M307.5 735 a7.5 7.5 0 1 0 15 0 a7.5 7.5 0 1 0 -15 0zM187.5 735 a7.5 7.5 0 1 0 15 0 a7.5 7.5 0 1 0 -15 0z" fill="rgba(0, 79, 182, 1)"></path><path d="M375 1065L345 1065L195 1215" stroke-width="5" stroke="rgba(0, 79, 182, 1)"></path><path d="M367.5 1065 a7.5 7.5 0 1 0 15 0 a7.5 7.5 0 1 0 -15 0zM187.5 1215 a7.5 7.5 0 1 0 15 0 a7.5 7.5 0 1 0 -15 0z" fill="rgba(0, 79, 182, 1)"></path><path d="M315 1245L315 1185" stroke-width="5" stroke="rgba(0, 79, 182, 1)"></path><path d="M307.5 1245 a7.5 7.5 0 1 0 15 0 a7.5 7.5 0 1 0 -15 0zM307.5 1185 a7.5 7.5 0 1 0 15 0 a7.5 7.5 0 1 0 -15 0z" fill="rgba(0, 79, 182, 1)"></path><path d="M255 975L255 1035" stroke-width="5" stroke="rgba(0, 79, 182, 1)"></path><path d="M247.5 975 a7.5 7.5 0 1 0 15 0 a7.5 7.5 0 1 0 -15 0zM247.5 1035 a7.5 7.5 0 1 0 15 0 a7.5 7.5 0 1 0 -15 0z" fill="rgba(0, 79, 182, 1)"></path><path d="M315 1275L285 1245L255 1245" stroke-width="5" stroke="rgba(0, 79, 182, 1)"></path><path d="M307.5 1275 a7.5 7.5 0 1 0 15 0 a7.5 7.5 0 1 0 -15 0zM247.5 1245 a7.5 7.5 0 1 0 15 0 a7.5 7.5 0 1 0 -15 0z" fill="rgba(0, 79, 182, 1)"></path><path d="M405 225L405 315" stroke-width="5" stroke="rgba(0, 79, 182, 1)"></path><path d="M397.5 225 a7.5 7.5 0 1 0 15 0 a7.5 7.5 0 1 0 -15 0zM397.5 315 a7.5 7.5 0 1 0 15 0 a7.5 7.5 0 1 0 -15 0z" fill="rgba(0, 79, 182, 1)"></path><path d="M405 1215L405 1155" stroke-width="5" stroke="rgba(0, 79, 182, 1)"></path><path d="M397.5 1215 a7.5 7.5 0 1 0 15 0 a7.5 7.5 0 1 0 -15 0zM397.5 1155 a7.5 7.5 0 1 0 15 0 a7.5 7.5 0 1 0 -15 0z" fill="rgba(0, 79, 182, 1)"></path><path d="M285 525L255 525L225 495" stroke-width="5" stroke="rgba(0, 79, 182, 1)"></path><path d="M277.5 525 a7.5 7.5 0 1 0 15 0 a7.5 7.5 0 1 0 -15 0zM217.5 495 a7.5 7.5 0 1 0 15 0 a7.5 7.5 0 1 0 -15 0z" fill="rgba(0, 79, 182, 1)"></path><path d="M165 885L165 825" stroke-width="5" stroke="rgba(0, 79, 182, 1)"></path><path d="M157.5 885 a7.5 7.5 0 1 0 15 0 a7.5 7.5 0 1 0 -15 0zM157.5 825 a7.5 7.5 0 1 0 15 0 a7.5 7.5 0 1 0 -15 0z" fill="rgba(0, 79, 182, 1)"></path><path d="M15 255L45 255L75 225L105 225L135 255" stroke-width="5" stroke="rgba(0, 79, 182, 1)"></path><path d="M7.5 255 a7.5 7.5 0 1 0 15 0 a7.5 7.5 0 1 0 -15 0zM127.5 255 a7.5 7.5 0 1 0 15 0 a7.5 7.5 0 1 0 -15 0z" fill="rgba(0, 79, 182, 1)"></path><path d="M195 1035L165 1065L165 1155" stroke-width="5" stroke="rgba(0, 79, 182, 1)"></path><path d="M187.5 1035 a7.5 7.5 0 1 0 15 0 a7.5 7.5 0 1 0 -15 0zM157.5 1155 a7.5 7.5 0 1 0 15 0 a7.5 7.5 0 1 0 -15 0z" fill="rgba(0, 79, 182, 1)"></path></g></g><defs><mask id="SvgjsMask2429"><rect width="400" height="1325" fill="#ffffff"></rect></mask><mask id="SvgjsMask2430"><rect width="400" height="1325" fill="white"></rect><path d="M371.25 735 a3.75 3.75 0 1 0 7.5 0 a3.75 3.75 0 1 0 -7.5 0zM71.25 1305 a3.75 3.75 0 1 0 7.5 0 a3.75 3.75 0 1 0 -7.5 0z" fill="black"></path><path d="M221.25 1245 a3.75 3.75 0 1 0 7.5 0 a3.75 3.75 0 1 0 -7.5 0zM311.25 825 a3.75 3.75 0 1 0 7.5 0 a3.75 3.75 0 1 0 -7.5 0z" fill="black"></path><path d="M191.25 225 a3.75 3.75 0 1 0 7.5 0 a3.75 3.75 0 1 0 -7.5 0zM11.25 15 a3.75 3.75 0 1 0 7.5 0 a3.75 3.75 0 1 0 -7.5 0z" fill="black"></path><path d="M371.25 525 a3.75 3.75 0 1 0 7.5 0 a3.75 3.75 0 1 0 -7.5 0zM11.25 315 a3.75 3.75 0 1 0 7.5 0 a3.75 3.75 0 1 0 -7.5 0z" fill="black"></path><path d="M11.25 1305 a3.75 3.75 0 1 0 7.5 0 a3.75 3.75 0 1 0 -7.5 0zM401.25 1335 a3.75 3.75 0 1 0 7.5 0 a3.75 3.75 0 1 0 -7.5 0z" fill="black"></path><path d="M281.25 195 a3.75 3.75 0 1 0 7.5 0 a3.75 3.75 0 1 0 -7.5 0zM401.25 195 a3.75 3.75 0 1 0 7.5 0 a3.75 3.75 0 1 0 -7.5 0z" fill="black"></path><path d="M131.25 135 a3.75 3.75 0 1 0 7.5 0 a3.75 3.75 0 1 0 -7.5 0zM401.25 525 a3.75 3.75 0 1 0 7.5 0 a3.75 3.75 0 1 0 -7.5 0z" fill="black"></path><path d="M221.25 405 a3.75 3.75 0 1 0 7.5 0 a3.75 3.75 0 1 0 -7.5 0zM221.25 255 a3.75 3.75 0 1 0 7.5 0 a3.75 3.75 0 1 0 -7.5 0z" fill="black"></path><path d="M101.25 495 a3.75 3.75 0 1 0 7.5 0 a3.75 3.75 0 1 0 -7.5 0zM371.25 585 a3.75 3.75 0 1 0 7.5 0 a3.75 3.75 0 1 0 -7.5 0z" fill="black"></path><path d="M131.25 1095 a3.75 3.75 0 1 0 7.5 0 a3.75 3.75 0 1 0 -7.5 0zM101.25 1305 a3.75 3.75 0 1 0 7.5 0 a3.75 3.75 0 1 0 -7.5 0z" fill="black"></path><path d="M371.25 285 a3.75 3.75 0 1 0 7.5 0 a3.75 3.75 0 1 0 -7.5 0zM221.25 15 a3.75 3.75 0 1 0 7.5 0 a3.75 3.75 0 1 0 -7.5 0z" fill="black"></path><path d="M161.25 75 a3.75 3.75 0 1 0 7.5 0 a3.75 3.75 0 1 0 -7.5 0zM191.25 165 a3.75 3.75 0 1 0 7.5 0 a3.75 3.75 0 1 0 -7.5 0z" fill="black"></path><path d="M11.25 585 a3.75 3.75 0 1 0 7.5 0 a3.75 3.75 0 1 0 -7.5 0zM11.25 1155 a3.75 3.75 0 1 0 7.5 0 a3.75 3.75 0 1 0 -7.5 0z" fill="black"></path><path d="M161.25 975 a3.75 3.75 0 1 0 7.5 0 a3.75 3.75 0 1 0 -7.5 0zM101.25 1275 a3.75 3.75 0 1 0 7.5 0 a3.75 3.75 0 1 0 -7.5 0z" fill="black"></path><path d="M161.25 45 a3.75 3.75 0 1 0 7.5 0 a3.75 3.75 0 1 0 -7.5 0zM41.25 45 a3.75 3.75 0 1 0 7.5 0 a3.75 3.75 0 1 0 -7.5 0z" fill="black"></path><path d="M341.25 435 a3.75 3.75 0 1 0 7.5 0 a3.75 3.75 0 1 0 -7.5 0zM251.25 285 a3.75 3.75 0 1 0 7.5 0 a3.75 3.75 0 1 0 -7.5 0z" fill="black"></path><path d="M101.25 915 a3.75 3.75 0 1 0 7.5 0 a3.75 3.75 0 1 0 -7.5 0zM11.25 465 a3.75 3.75 0 1 0 7.5 0 a3.75 3.75 0 1 0 -7.5 0z" fill="black"></path><path d="M71.25 255 a3.75 3.75 0 1 0 7.5 0 a3.75 3.75 0 1 0 -7.5 0zM371.25 555 a3.75 3.75 0 1 0 7.5 0 a3.75 3.75 0 1 0 -7.5 0z" fill="black"></path><path d="M401.25 105 a3.75 3.75 0 1 0 7.5 0 a3.75 3.75 0 1 0 -7.5 0zM401.25 15 a3.75 3.75 0 1 0 7.5 0 a3.75 3.75 0 1 0 -7.5 0z" fill="black"></path><path d="M161.25 645 a3.75 3.75 0 1 0 7.5 0 a3.75 3.75 0 1 0 -7.5 0zM71.25 525 a3.75 3.75 0 1 0 7.5 0 a3.75 3.75 0 1 0 -7.5 0z" fill="black"></path><path d="M71.25 615 a3.75 3.75 0 1 0 7.5 0 a3.75 3.75 0 1 0 -7.5 0zM71.25 555 a3.75 3.75 0 1 0 7.5 0 a3.75 3.75 0 1 0 -7.5 0z" fill="black"></path><path d="M41.25 1185 a3.75 3.75 0 1 0 7.5 0 a3.75 3.75 0 1 0 -7.5 0zM11.25 1275 a3.75 3.75 0 1 0 7.5 0 a3.75 3.75 0 1 0 -7.5 0z" fill="black"></path><path d="M311.25 465 a3.75 3.75 0 1 0 7.5 0 a3.75 3.75 0 1 0 -7.5 0zM371.25 465 a3.75 3.75 0 1 0 7.5 0 a3.75 3.75 0 1 0 -7.5 0z" fill="black"></path><path d="M341.25 1035 a3.75 3.75 0 1 0 7.5 0 a3.75 3.75 0 1 0 -7.5 0zM161.25 1215 a3.75 3.75 0 1 0 7.5 0 a3.75 3.75 0 1 0 -7.5 0z" fill="black"></path><path d="M281.25 465 a3.75 3.75 0 1 0 7.5 0 a3.75 3.75 0 1 0 -7.5 0zM161.25 495 a3.75 3.75 0 1 0 7.5 0 a3.75 3.75 0 1 0 -7.5 0z" fill="black"></path><path d="M11.25 165 a3.75 3.75 0 1 0 7.5 0 a3.75 3.75 0 1 0 -7.5 0zM191.25 345 a3.75 3.75 0 1 0 7.5 0 a3.75 3.75 0 1 0 -7.5 0z" fill="black"></path><path d="M371.25 825 a3.75 3.75 0 1 0 7.5 0 a3.75 3.75 0 1 0 -7.5 0zM131.25 885 a3.75 3.75 0 1 0 7.5 0 a3.75 3.75 0 1 0 -7.5 0z" fill="black"></path><path d="M371.25 105 a3.75 3.75 0 1 0 7.5 0 a3.75 3.75 0 1 0 -7.5 0zM251.25 15 a3.75 3.75 0 1 0 7.5 0 a3.75 3.75 0 1 0 -7.5 0z" fill="black"></path><path d="M311.25 315 a3.75 3.75 0 1 0 7.5 0 a3.75 3.75 0 1 0 -7.5 0zM371.25 435 a3.75 3.75 0 1 0 7.5 0 a3.75 3.75 0 1 0 -7.5 0z" fill="black"></path><path d="M341.25 1245 a3.75 3.75 0 1 0 7.5 0 a3.75 3.75 0 1 0 -7.5 0zM401.25 1095 a3.75 3.75 0 1 0 7.5 0 a3.75 3.75 0 1 0 -7.5 0z" fill="black"></path><path d="M401.25 1275 a3.75 3.75 0 1 0 7.5 0 a3.75 3.75 0 1 0 -7.5 0zM401.25 1125 a3.75 3.75 0 1 0 7.5 0 a3.75 3.75 0 1 0 -7.5 0z" fill="black"></path><path d="M221.25 765 a3.75 3.75 0 1 0 7.5 0 a3.75 3.75 0 1 0 -7.5 0zM161.25 765 a3.75 3.75 0 1 0 7.5 0 a3.75 3.75 0 1 0 -7.5 0z" fill="black"></path><path d="M71.25 825 a3.75 3.75 0 1 0 7.5 0 a3.75 3.75 0 1 0 -7.5 0zM41.25 1155 a3.75 3.75 0 1 0 7.5 0 a3.75 3.75 0 1 0 -7.5 0z" fill="black"></path><path d="M41.25 195 a3.75 3.75 0 1 0 7.5 0 a3.75 3.75 0 1 0 -7.5 0zM161.25 315 a3.75 3.75 0 1 0 7.5 0 a3.75 3.75 0 1 0 -7.5 0z" fill="black"></path><path d="M371.25 75 a3.75 3.75 0 1 0 7.5 0 a3.75 3.75 0 1 0 -7.5 0zM371.25 15 a3.75 3.75 0 1 0 7.5 0 a3.75 3.75 0 1 0 -7.5 0z" fill="black"></path><path d="M71.25 795 a3.75 3.75 0 1 0 7.5 0 a3.75 3.75 0 1 0 -7.5 0zM41.25 1005 a3.75 3.75 0 1 0 7.5 0 a3.75 3.75 0 1 0 -7.5 0z" fill="black"></path><path d="M71.25 705 a3.75 3.75 0 1 0 7.5 0 a3.75 3.75 0 1 0 -7.5 0zM41.25 795 a3.75 3.75 0 1 0 7.5 0 a3.75 3.75 0 1 0 -7.5 0z" fill="black"></path><path d="M101.25 315 a3.75 3.75 0 1 0 7.5 0 a3.75 3.75 0 1 0 -7.5 0zM41.25 405 a3.75 3.75 0 1 0 7.5 0 a3.75 3.75 0 1 0 -7.5 0z" fill="black"></path><path d="M221.25 675 a3.75 3.75 0 1 0 7.5 0 a3.75 3.75 0 1 0 -7.5 0zM161.25 735 a3.75 3.75 0 1 0 7.5 0 a3.75 3.75 0 1 0 -7.5 0z" fill="black"></path><path d="M221.25 1035 a3.75 3.75 0 1 0 7.5 0 a3.75 3.75 0 1 0 -7.5 0zM161.25 1185 a3.75 3.75 0 1 0 7.5 0 a3.75 3.75 0 1 0 -7.5 0z" fill="black"></path><path d="M371.25 1035 a3.75 3.75 0 1 0 7.5 0 a3.75 3.75 0 1 0 -7.5 0zM371.25 915 a3.75 3.75 0 1 0 7.5 0 a3.75 3.75 0 1 0 -7.5 0z" fill="black"></path><path d="M131.25 345 a3.75 3.75 0 1 0 7.5 0 a3.75 3.75 0 1 0 -7.5 0zM131.25 435 a3.75 3.75 0 1 0 7.5 0 a3.75 3.75 0 1 0 -7.5 0z" fill="black"></path><path d="M371.25 375 a3.75 3.75 0 1 0 7.5 0 a3.75 3.75 0 1 0 -7.5 0zM341.25 315 a3.75 3.75 0 1 0 7.5 0 a3.75 3.75 0 1 0 -7.5 0z" fill="black"></path><path d="M371.25 165 a3.75 3.75 0 1 0 7.5 0 a3.75 3.75 0 1 0 -7.5 0zM251.25 45 a3.75 3.75 0 1 0 7.5 0 a3.75 3.75 0 1 0 -7.5 0z" fill="black"></path><path d="M191.25 795 a3.75 3.75 0 1 0 7.5 0 a3.75 3.75 0 1 0 -7.5 0zM371.25 705 a3.75 3.75 0 1 0 7.5 0 a3.75 3.75 0 1 0 -7.5 0z" fill="black"></path><path d="M161.25 1035 a3.75 3.75 0 1 0 7.5 0 a3.75 3.75 0 1 0 -7.5 0zM311.25 855 a3.75 3.75 0 1 0 7.5 0 a3.75 3.75 0 1 0 -7.5 0z" fill="black"></path><path d="M191.25 885 a3.75 3.75 0 1 0 7.5 0 a3.75 3.75 0 1 0 -7.5 0zM161.25 795 a3.75 3.75 0 1 0 7.5 0 a3.75 3.75 0 1 0 -7.5 0z" fill="black"></path><path d="M281.25 1035 a3.75 3.75 0 1 0 7.5 0 a3.75 3.75 0 1 0 -7.5 0zM341.25 915 a3.75 3.75 0 1 0 7.5 0 a3.75 3.75 0 1 0 -7.5 0z" fill="black"></path><path d="M311.25 735 a3.75 3.75 0 1 0 7.5 0 a3.75 3.75 0 1 0 -7.5 0zM191.25 735 a3.75 3.75 0 1 0 7.5 0 a3.75 3.75 0 1 0 -7.5 0z" fill="black"></path><path d="M371.25 1065 a3.75 3.75 0 1 0 7.5 0 a3.75 3.75 0 1 0 -7.5 0zM191.25 1215 a3.75 3.75 0 1 0 7.5 0 a3.75 3.75 0 1 0 -7.5 0z" fill="black"></path><path d="M311.25 1245 a3.75 3.75 0 1 0 7.5 0 a3.75 3.75 0 1 0 -7.5 0zM311.25 1185 a3.75 3.75 0 1 0 7.5 0 a3.75 3.75 0 1 0 -7.5 0z" fill="black"></path><path d="M251.25 975 a3.75 3.75 0 1 0 7.5 0 a3.75 3.75 0 1 0 -7.5 0zM251.25 1035 a3.75 3.75 0 1 0 7.5 0 a3.75 3.75 0 1 0 -7.5 0z" fill="black"></path><path d="M311.25 1275 a3.75 3.75 0 1 0 7.5 0 a3.75 3.75 0 1 0 -7.5 0zM251.25 1245 a3.75 3.75 0 1 0 7.5 0 a3.75 3.75 0 1 0 -7.5 0z" fill="black"></path><path d="M401.25 225 a3.75 3.75 0 1 0 7.5 0 a3.75 3.75 0 1 0 -7.5 0zM401.25 315 a3.75 3.75 0 1 0 7.5 0 a3.75 3.75 0 1 0 -7.5 0z" fill="black"></path><path d="M401.25 1215 a3.75 3.75 0 1 0 7.5 0 a3.75 3.75 0 1 0 -7.5 0zM401.25 1155 a3.75 3.75 0 1 0 7.5 0 a3.75 3.75 0 1 0 -7.5 0z" fill="black"></path><path d="M281.25 525 a3.75 3.75 0 1 0 7.5 0 a3.75 3.75 0 1 0 -7.5 0zM221.25 495 a3.75 3.75 0 1 0 7.5 0 a3.75 3.75 0 1 0 -7.5 0z" fill="black"></path><path d="M161.25 885 a3.75 3.75 0 1 0 7.5 0 a3.75 3.75 0 1 0 -7.5 0zM161.25 825 a3.75 3.75 0 1 0 7.5 0 a3.75 3.75 0 1 0 -7.5 0z" fill="black"></path><path d="M11.25 255 a3.75 3.75 0 1 0 7.5 0 a3.75 3.75 0 1 0 -7.5 0zM131.25 255 a3.75 3.75 0 1 0 7.5 0 a3.75 3.75 0 1 0 -7.5 0z" fill="black"></path><path d="M191.25 1035 a3.75 3.75 0 1 0 7.5 0 a3.75 3.75 0 1 0 -7.5 0zM161.25 1155 a3.75 3.75 0 1 0 7.5 0 a3.75 3.75 0 1 0 -7.5 0z" fill="black"></path></mask></defs></svg>