<svg xmlns="http://www.w3.org/2000/svg" version="1.1" xmlns:xlink="http://www.w3.org/1999/xlink" xmlns:svgjs="http://svgjs.com/svgjs" width="560" height="1440" preserveAspectRatio="none" viewBox="0 0 560 1440"><g mask="url(&quot;#SvgjsMask5060&quot;)" fill="none"><g mask="url(&quot;#SvgjsMask5062&quot;)"><path d="M312.5 462.5L287.5 437.5L287.5 412.5L287.5 387.5L287.5 362.5L287.5 337.5L287.5 312.5M362.5 862.5L337.5 837.5L337.5 812.5L337.5 787.5L337.5 762.5L337.5 737.5L337.5 712.5L337.5 687.5L337.5 662.5L337.5 637.5L312.5 612.5L287.5 587.5M337.5 1062.5L362.5 1037.5L362.5 1012.5M312.5 437.5L337.5 412.5L337.5 387.5L337.5 362.5L337.5 337.5L337.5 312.5M337.5 1087.5L312.5 1062.5L312.5 1037.5L312.5 1012.5M312.5 1437.5L287.5 1412.5L287.5 1387.5L287.5 1362.5L287.5 1337.5L287.5 1312.5L287.5 1287.5L287.5 1262.5M337.5 1262.5L312.5 1237.5L312.5 1212.5L312.5 1187.5L312.5 1162.5L312.5 1137.5L312.5 1112.5L312.5 1087.5L287.5 1062.5L287.5 1037.5L287.5 1012.5L287.5 987.5M312.5 487.5L337.5 462.5L362.5 437.5L362.5 412.5L362.5 387.5L362.5 362.5L362.5 337.5L362.5 312.5M337.5 1137.5L362.5 1112.5L362.5 1087.5L362.5 1062.5M337.5 1187.5L362.5 1162.5L362.5 1137.5M337.5 962.5L362.5 937.5M287.5 1462.5L312.5 1437.5L312.5 1412.5L312.5 1387.5L312.5 1362.5L312.5 1337.5L337.5 1312.5L337.5 1287.5L337.5 1262.5L337.5 1237.5L337.5 1212.5L337.5 1187.5L337.5 1162.5L337.5 1137.5L337.5 1112.5L337.5 1087.5L337.5 1062.5L337.5 1037.5L337.5 1012.5L337.5 987.5L337.5 962.5L337.5 937.5L362.5 912.5L362.5 887.5L362.5 862.5L362.5 837.5L362.5 812.5L362.5 787.5L362.5 762.5L362.5 737.5L362.5 712.5L362.5 687.5L362.5 662.5L362.5 637.5L337.5 612.5L312.5 587.5L312.5 562.5L312.5 537.5L312.5 512.5L312.5 487.5L312.5 462.5L312.5 437.5L312.5 412.5L312.5 387.5" stroke="url(#SvgjsLinearGradient5061)" stroke-width="4.17"></path><path d="M306.25 387.5 a6.25 6.25 0 1 0 12.5 0 a6.25 6.25 0 1 0 -12.5 0zM281.25 312.5 a6.25 6.25 0 1 0 12.5 0 a6.25 6.25 0 1 0 -12.5 0zM281.25 587.5 a6.25 6.25 0 1 0 12.5 0 a6.25 6.25 0 1 0 -12.5 0zM356.25 1012.5 a6.25 6.25 0 1 0 12.5 0 a6.25 6.25 0 1 0 -12.5 0zM331.25 312.5 a6.25 6.25 0 1 0 12.5 0 a6.25 6.25 0 1 0 -12.5 0zM306.25 1012.5 a6.25 6.25 0 1 0 12.5 0 a6.25 6.25 0 1 0 -12.5 0zM281.25 1262.5 a6.25 6.25 0 1 0 12.5 0 a6.25 6.25 0 1 0 -12.5 0zM281.25 987.5 a6.25 6.25 0 1 0 12.5 0 a6.25 6.25 0 1 0 -12.5 0zM356.25 312.5 a6.25 6.25 0 1 0 12.5 0 a6.25 6.25 0 1 0 -12.5 0zM356.25 1062.5 a6.25 6.25 0 1 0 12.5 0 a6.25 6.25 0 1 0 -12.5 0zM356.25 1137.5 a6.25 6.25 0 1 0 12.5 0 a6.25 6.25 0 1 0 -12.5 0zM356.25 937.5 a6.25 6.25 0 1 0 12.5 0 a6.25 6.25 0 1 0 -12.5 0z" fill="url(#SvgjsLinearGradient5061)"></path><path d="M237.5 1262.5L262.5 1237.5L262.5 1212.5L262.5 1187.5L262.5 1162.5L262.5 1137.5L262.5 1112.5L262.5 1087.5L262.5 1062.5L262.5 1037.5L262.5 1012.5M237.5 1162.5L212.5 1137.5L212.5 1112.5M212.5 1037.5L237.5 1012.5L237.5 987.5L262.5 962.5L262.5 937.5L262.5 912.5L262.5 887.5M187.5 512.5L187.5 487.5L187.5 462.5M187.5 562.5L212.5 537.5L212.5 512.5L212.5 487.5L212.5 462.5L212.5 437.5L212.5 412.5L212.5 387.5L212.5 362.5M187.5 637.5L212.5 612.5L212.5 587.5L237.5 562.5L237.5 537.5L237.5 512.5L237.5 487.5L237.5 462.5L237.5 437.5L237.5 412.5L237.5 387.5L237.5 362.5L237.5 337.5L237.5 312.5M212.5 712.5L187.5 687.5M237.5 887.5L212.5 862.5L212.5 837.5L212.5 812.5L212.5 787.5M237.5 837.5L262.5 812.5L262.5 787.5M187.5 612.5L162.5 587.5L162.5 562.5L162.5 537.5L162.5 512.5L137.5 487.5L137.5 462.5L137.5 437.5M212.5 1062.5L187.5 1037.5L187.5 1012.5M262.5 1462.5L262.5 1437.5L262.5 1412.5L262.5 1387.5L262.5 1362.5L262.5 1337.5L237.5 1312.5L237.5 1287.5L237.5 1262.5L237.5 1237.5L237.5 1212.5L237.5 1187.5L237.5 1162.5L237.5 1137.5L237.5 1112.5L237.5 1087.5L212.5 1062.5L212.5 1037.5L212.5 1012.5L212.5 987.5L237.5 962.5L237.5 937.5L237.5 912.5L237.5 887.5L237.5 862.5L237.5 837.5L237.5 812.5L237.5 787.5L237.5 762.5L212.5 737.5L212.5 712.5L212.5 687.5L212.5 662.5L187.5 637.5L187.5 612.5L187.5 587.5L187.5 562.5L187.5 537.5L187.5 512.5L162.5 487.5L162.5 462.5L162.5 437.5L162.5 412.5L162.5 387.5" stroke="url(#SvgjsLinearGradient5061)" stroke-width="4.17"></path><path d="M156.25 387.5 a6.25 6.25 0 1 0 12.5 0 a6.25 6.25 0 1 0 -12.5 0zM256.25 1012.5 a6.25 6.25 0 1 0 12.5 0 a6.25 6.25 0 1 0 -12.5 0zM206.25 1112.5 a6.25 6.25 0 1 0 12.5 0 a6.25 6.25 0 1 0 -12.5 0zM256.25 887.5 a6.25 6.25 0 1 0 12.5 0 a6.25 6.25 0 1 0 -12.5 0zM181.25 462.5 a6.25 6.25 0 1 0 12.5 0 a6.25 6.25 0 1 0 -12.5 0zM206.25 362.5 a6.25 6.25 0 1 0 12.5 0 a6.25 6.25 0 1 0 -12.5 0zM231.25 312.5 a6.25 6.25 0 1 0 12.5 0 a6.25 6.25 0 1 0 -12.5 0zM181.25 687.5 a6.25 6.25 0 1 0 12.5 0 a6.25 6.25 0 1 0 -12.5 0zM206.25 787.5 a6.25 6.25 0 1 0 12.5 0 a6.25 6.25 0 1 0 -12.5 0zM256.25 787.5 a6.25 6.25 0 1 0 12.5 0 a6.25 6.25 0 1 0 -12.5 0zM131.25 437.5 a6.25 6.25 0 1 0 12.5 0 a6.25 6.25 0 1 0 -12.5 0zM181.25 1012.5 a6.25 6.25 0 1 0 12.5 0 a6.25 6.25 0 1 0 -12.5 0z" fill="url(#SvgjsLinearGradient5061)"></path><path d="M187.5 1212.5L212.5 1187.5L212.5 1162.5M212.5 1237.5L212.5 1212.5M187.5 1112.5L187.5 1087.5L187.5 1062.5L162.5 1037.5L162.5 1012.5M187.5 1162.5L162.5 1137.5M237.5 1462.5L237.5 1437.5L237.5 1412.5L237.5 1387.5L237.5 1362.5L237.5 1337.5L212.5 1312.5L212.5 1287.5L212.5 1262.5L212.5 1237.5L187.5 1212.5L187.5 1187.5L187.5 1162.5L187.5 1137.5L187.5 1112.5L212.5 1087.5" stroke="url(#SvgjsLinearGradient5061)" stroke-width="4.17"></path><path d="M206.25 1087.5 a6.25 6.25 0 1 0 12.5 0 a6.25 6.25 0 1 0 -12.5 0zM206.25 1162.5 a6.25 6.25 0 1 0 12.5 0 a6.25 6.25 0 1 0 -12.5 0zM206.25 1212.5 a6.25 6.25 0 1 0 12.5 0 a6.25 6.25 0 1 0 -12.5 0zM156.25 1012.5 a6.25 6.25 0 1 0 12.5 0 a6.25 6.25 0 1 0 -12.5 0zM156.25 1137.5 a6.25 6.25 0 1 0 12.5 0 a6.25 6.25 0 1 0 -12.5 0z" fill="url(#SvgjsLinearGradient5061)"></path><path d="M362.5 1212.5L362.5 1187.5M387.5 987.5L362.5 962.5M337.5 1462.5L337.5 1437.5L337.5 1412.5L337.5 1387.5L337.5 1362.5L337.5 1337.5L362.5 1312.5L362.5 1287.5L362.5 1262.5L362.5 1237.5L362.5 1212.5L387.5 1187.5L387.5 1162.5L387.5 1137.5L387.5 1112.5L387.5 1087.5L387.5 1062.5L387.5 1037.5L387.5 1012.5L387.5 987.5L387.5 962.5L387.5 937.5" stroke="url(#SvgjsLinearGradient5061)" stroke-width="4.17"></path><path d="M381.25 937.5 a6.25 6.25 0 1 0 12.5 0 a6.25 6.25 0 1 0 -12.5 0zM356.25 1187.5 a6.25 6.25 0 1 0 12.5 0 a6.25 6.25 0 1 0 -12.5 0zM356.25 962.5 a6.25 6.25 0 1 0 12.5 0 a6.25 6.25 0 1 0 -12.5 0z" fill="url(#SvgjsLinearGradient5061)"></path><path d="M162.5 1212.5L162.5 1187.5M212.5 1462.5L212.5 1437.5L212.5 1412.5L212.5 1387.5L212.5 1362.5L212.5 1337.5L187.5 1312.5L187.5 1287.5L187.5 1262.5L187.5 1237.5L162.5 1212.5L137.5 1187.5L137.5 1162.5L137.5 1137.5" stroke="url(#SvgjsLinearGradient5061)" stroke-width="4.17"></path><path d="M131.25 1137.5 a6.25 6.25 0 1 0 12.5 0 a6.25 6.25 0 1 0 -12.5 0zM156.25 1187.5 a6.25 6.25 0 1 0 12.5 0 a6.25 6.25 0 1 0 -12.5 0z" fill="url(#SvgjsLinearGradient5061)"></path><path d="M412.5 962.5L437.5 937.5L437.5 912.5L437.5 887.5L437.5 862.5L437.5 837.5L437.5 812.5L437.5 787.5L437.5 762.5L437.5 737.5L437.5 712.5L437.5 687.5L437.5 662.5L437.5 637.5L437.5 612.5M412.5 987.5L437.5 962.5M412.5 937.5L412.5 912.5M387.5 737.5L412.5 712.5L412.5 687.5M412.5 1037.5L437.5 1012.5L437.5 987.5M412.5 1062.5L437.5 1037.5M412.5 1137.5L437.5 1112.5L437.5 1087.5M362.5 612.5L387.5 587.5L387.5 562.5L387.5 537.5L387.5 512.5L387.5 487.5L387.5 462.5L387.5 437.5L387.5 412.5L387.5 387.5M387.5 787.5L412.5 762.5M362.5 1462.5L362.5 1437.5L362.5 1412.5L362.5 1387.5L362.5 1362.5L362.5 1337.5L387.5 1312.5L387.5 1287.5L387.5 1262.5L387.5 1237.5L387.5 1212.5L412.5 1187.5L412.5 1162.5L412.5 1137.5L412.5 1112.5L412.5 1087.5L412.5 1062.5L412.5 1037.5L412.5 1012.5L412.5 987.5L412.5 962.5L412.5 937.5L387.5 912.5L387.5 887.5L387.5 862.5L387.5 837.5L387.5 812.5L387.5 787.5L387.5 762.5L387.5 737.5L387.5 712.5L387.5 687.5L387.5 662.5L387.5 637.5L362.5 612.5L362.5 587.5L362.5 562.5" stroke="url(#SvgjsLinearGradient5061)" stroke-width="4.17"></path><path d="M356.25 562.5 a6.25 6.25 0 1 0 12.5 0 a6.25 6.25 0 1 0 -12.5 0zM431.25 612.5 a6.25 6.25 0 1 0 12.5 0 a6.25 6.25 0 1 0 -12.5 0zM431.25 962.5 a6.25 6.25 0 1 0 12.5 0 a6.25 6.25 0 1 0 -12.5 0zM406.25 912.5 a6.25 6.25 0 1 0 12.5 0 a6.25 6.25 0 1 0 -12.5 0zM406.25 687.5 a6.25 6.25 0 1 0 12.5 0 a6.25 6.25 0 1 0 -12.5 0zM431.25 987.5 a6.25 6.25 0 1 0 12.5 0 a6.25 6.25 0 1 0 -12.5 0zM431.25 1037.5 a6.25 6.25 0 1 0 12.5 0 a6.25 6.25 0 1 0 -12.5 0zM431.25 1087.5 a6.25 6.25 0 1 0 12.5 0 a6.25 6.25 0 1 0 -12.5 0zM381.25 387.5 a6.25 6.25 0 1 0 12.5 0 a6.25 6.25 0 1 0 -12.5 0zM406.25 762.5 a6.25 6.25 0 1 0 12.5 0 a6.25 6.25 0 1 0 -12.5 0z" fill="url(#SvgjsLinearGradient5061)"></path><path d="M87.5 1062.5L112.5 1037.5M112.5 1137.5L112.5 1112.5L112.5 1087.5L112.5 1062.5L137.5 1037.5M187.5 1462.5L187.5 1437.5L187.5 1412.5L187.5 1387.5L187.5 1362.5L187.5 1337.5L162.5 1312.5L162.5 1287.5L162.5 1262.5L162.5 1237.5L137.5 1212.5L112.5 1187.5L112.5 1162.5L112.5 1137.5L87.5 1112.5L87.5 1087.5L87.5 1062.5L87.5 1037.5" stroke="url(#SvgjsLinearGradient5061)" stroke-width="4.17"></path><path d="M81.25 1037.5 a6.25 6.25 0 1 0 12.5 0 a6.25 6.25 0 1 0 -12.5 0zM106.25 1037.5 a6.25 6.25 0 1 0 12.5 0 a6.25 6.25 0 1 0 -12.5 0zM131.25 1037.5 a6.25 6.25 0 1 0 12.5 0 a6.25 6.25 0 1 0 -12.5 0z" fill="url(#SvgjsLinearGradient5061)"></path><path d="M412.5 1237.5L437.5 1212.5L462.5 1187.5L462.5 1162.5L487.5 1137.5M412.5 1262.5L437.5 1237.5L462.5 1212.5L487.5 1187.5M387.5 1362.5L412.5 1337.5L437.5 1312.5M387.5 1387.5L412.5 1362.5M437.5 1162.5L437.5 1137.5M387.5 1462.5L387.5 1437.5L387.5 1412.5L387.5 1387.5L387.5 1362.5L387.5 1337.5L412.5 1312.5L412.5 1287.5L412.5 1262.5L412.5 1237.5L412.5 1212.5L437.5 1187.5L437.5 1162.5L462.5 1137.5L462.5 1112.5L462.5 1087.5L462.5 1062.5L462.5 1037.5L462.5 1012.5L462.5 987.5L462.5 962.5L462.5 937.5" stroke="url(#SvgjsLinearGradient5061)" stroke-width="4.17"></path><path d="M456.25 937.5 a6.25 6.25 0 1 0 12.5 0 a6.25 6.25 0 1 0 -12.5 0zM481.25 1137.5 a6.25 6.25 0 1 0 12.5 0 a6.25 6.25 0 1 0 -12.5 0zM481.25 1187.5 a6.25 6.25 0 1 0 12.5 0 a6.25 6.25 0 1 0 -12.5 0zM431.25 1312.5 a6.25 6.25 0 1 0 12.5 0 a6.25 6.25 0 1 0 -12.5 0zM406.25 1362.5 a6.25 6.25 0 1 0 12.5 0 a6.25 6.25 0 1 0 -12.5 0zM431.25 1137.5 a6.25 6.25 0 1 0 12.5 0 a6.25 6.25 0 1 0 -12.5 0z" fill="url(#SvgjsLinearGradient5061)"></path><path d="M162.5 1412.5L137.5 1387.5L112.5 1362.5M62.5 912.5L87.5 887.5L87.5 862.5L87.5 837.5L87.5 812.5L112.5 787.5M137.5 1312.5L112.5 1287.5L112.5 1262.5L87.5 1237.5L62.5 1212.5L62.5 1187.5M137.5 1362.5L162.5 1337.5M137.5 1337.5L112.5 1312.5M62.5 962.5L87.5 937.5L87.5 912.5L112.5 887.5L112.5 862.5L112.5 837.5L137.5 812.5M162.5 1462.5L162.5 1437.5L162.5 1412.5L162.5 1387.5L137.5 1362.5L137.5 1337.5L137.5 1312.5L137.5 1287.5L137.5 1262.5L137.5 1237.5L112.5 1212.5L87.5 1187.5L87.5 1162.5L87.5 1137.5L62.5 1112.5L62.5 1087.5L62.5 1062.5L62.5 1037.5L62.5 1012.5L62.5 987.5L62.5 962.5L62.5 937.5L62.5 912.5L62.5 887.5" stroke="url(#SvgjsLinearGradient5061)" stroke-width="4.17"></path><path d="M56.25 887.5 a6.25 6.25 0 1 0 12.5 0 a6.25 6.25 0 1 0 -12.5 0zM106.25 1362.5 a6.25 6.25 0 1 0 12.5 0 a6.25 6.25 0 1 0 -12.5 0zM106.25 787.5 a6.25 6.25 0 1 0 12.5 0 a6.25 6.25 0 1 0 -12.5 0zM56.25 1187.5 a6.25 6.25 0 1 0 12.5 0 a6.25 6.25 0 1 0 -12.5 0zM156.25 1337.5 a6.25 6.25 0 1 0 12.5 0 a6.25 6.25 0 1 0 -12.5 0zM106.25 1312.5 a6.25 6.25 0 1 0 12.5 0 a6.25 6.25 0 1 0 -12.5 0zM131.25 812.5 a6.25 6.25 0 1 0 12.5 0 a6.25 6.25 0 1 0 -12.5 0z" fill="url(#SvgjsLinearGradient5061)"></path></g></g><defs><mask id="SvgjsMask5060"><rect width="560" height="1440" fill="#ffffff"></rect></mask><linearGradient x1="718.816" y1="1281.1579199999999" x2="-158.816" y2="403.64207999999996" gradientUnits="userSpaceOnUse" id="SvgjsLinearGradient5061"><stop stop-color="rgba(58, 124, 195, 1)" offset="0.12"></stop><stop stop-color="rgba(255, 159, 0, 1)" offset="0.81"></stop></linearGradient><mask id="SvgjsMask5062"><rect width="560" height="1440" fill="white"></rect><path d="M309.37 387.5 a3.13 3.13 0 1 0 6.26 0 a3.13 3.13 0 1 0 -6.26 0zM284.37 312.5 a3.13 3.13 0 1 0 6.26 0 a3.13 3.13 0 1 0 -6.26 0zM284.37 587.5 a3.13 3.13 0 1 0 6.26 0 a3.13 3.13 0 1 0 -6.26 0zM359.37 1012.5 a3.13 3.13 0 1 0 6.26 0 a3.13 3.13 0 1 0 -6.26 0zM334.37 312.5 a3.13 3.13 0 1 0 6.26 0 a3.13 3.13 0 1 0 -6.26 0zM309.37 1012.5 a3.13 3.13 0 1 0 6.26 0 a3.13 3.13 0 1 0 -6.26 0zM284.37 1262.5 a3.13 3.13 0 1 0 6.26 0 a3.13 3.13 0 1 0 -6.26 0zM284.37 987.5 a3.13 3.13 0 1 0 6.26 0 a3.13 3.13 0 1 0 -6.26 0zM359.37 312.5 a3.13 3.13 0 1 0 6.26 0 a3.13 3.13 0 1 0 -6.26 0zM359.37 1062.5 a3.13 3.13 0 1 0 6.26 0 a3.13 3.13 0 1 0 -6.26 0zM359.37 1137.5 a3.13 3.13 0 1 0 6.26 0 a3.13 3.13 0 1 0 -6.26 0zM359.37 937.5 a3.13 3.13 0 1 0 6.26 0 a3.13 3.13 0 1 0 -6.26 0z" fill="black"></path><path d="M159.37 387.5 a3.13 3.13 0 1 0 6.26 0 a3.13 3.13 0 1 0 -6.26 0zM259.37 1012.5 a3.13 3.13 0 1 0 6.26 0 a3.13 3.13 0 1 0 -6.26 0zM209.37 1112.5 a3.13 3.13 0 1 0 6.26 0 a3.13 3.13 0 1 0 -6.26 0zM259.37 887.5 a3.13 3.13 0 1 0 6.26 0 a3.13 3.13 0 1 0 -6.26 0zM184.37 462.5 a3.13 3.13 0 1 0 6.26 0 a3.13 3.13 0 1 0 -6.26 0zM209.37 362.5 a3.13 3.13 0 1 0 6.26 0 a3.13 3.13 0 1 0 -6.26 0zM234.37 312.5 a3.13 3.13 0 1 0 6.26 0 a3.13 3.13 0 1 0 -6.26 0zM184.37 687.5 a3.13 3.13 0 1 0 6.26 0 a3.13 3.13 0 1 0 -6.26 0zM209.37 787.5 a3.13 3.13 0 1 0 6.26 0 a3.13 3.13 0 1 0 -6.26 0zM259.37 787.5 a3.13 3.13 0 1 0 6.26 0 a3.13 3.13 0 1 0 -6.26 0zM134.37 437.5 a3.13 3.13 0 1 0 6.26 0 a3.13 3.13 0 1 0 -6.26 0zM184.37 1012.5 a3.13 3.13 0 1 0 6.26 0 a3.13 3.13 0 1 0 -6.26 0z" fill="black"></path><path d="M209.37 1087.5 a3.13 3.13 0 1 0 6.26 0 a3.13 3.13 0 1 0 -6.26 0zM209.37 1162.5 a3.13 3.13 0 1 0 6.26 0 a3.13 3.13 0 1 0 -6.26 0zM209.37 1212.5 a3.13 3.13 0 1 0 6.26 0 a3.13 3.13 0 1 0 -6.26 0zM159.37 1012.5 a3.13 3.13 0 1 0 6.26 0 a3.13 3.13 0 1 0 -6.26 0zM159.37 1137.5 a3.13 3.13 0 1 0 6.26 0 a3.13 3.13 0 1 0 -6.26 0z" fill="black"></path><path d="M384.37 937.5 a3.13 3.13 0 1 0 6.26 0 a3.13 3.13 0 1 0 -6.26 0zM359.37 1187.5 a3.13 3.13 0 1 0 6.26 0 a3.13 3.13 0 1 0 -6.26 0zM359.37 962.5 a3.13 3.13 0 1 0 6.26 0 a3.13 3.13 0 1 0 -6.26 0z" fill="black"></path><path d="M134.37 1137.5 a3.13 3.13 0 1 0 6.26 0 a3.13 3.13 0 1 0 -6.26 0zM159.37 1187.5 a3.13 3.13 0 1 0 6.26 0 a3.13 3.13 0 1 0 -6.26 0z" fill="black"></path><path d="M359.37 562.5 a3.13 3.13 0 1 0 6.26 0 a3.13 3.13 0 1 0 -6.26 0zM434.37 612.5 a3.13 3.13 0 1 0 6.26 0 a3.13 3.13 0 1 0 -6.26 0zM434.37 962.5 a3.13 3.13 0 1 0 6.26 0 a3.13 3.13 0 1 0 -6.26 0zM409.37 912.5 a3.13 3.13 0 1 0 6.26 0 a3.13 3.13 0 1 0 -6.26 0zM409.37 687.5 a3.13 3.13 0 1 0 6.26 0 a3.13 3.13 0 1 0 -6.26 0zM434.37 987.5 a3.13 3.13 0 1 0 6.26 0 a3.13 3.13 0 1 0 -6.26 0zM434.37 1037.5 a3.13 3.13 0 1 0 6.26 0 a3.13 3.13 0 1 0 -6.26 0zM434.37 1087.5 a3.13 3.13 0 1 0 6.26 0 a3.13 3.13 0 1 0 -6.26 0zM384.37 387.5 a3.13 3.13 0 1 0 6.26 0 a3.13 3.13 0 1 0 -6.26 0zM409.37 762.5 a3.13 3.13 0 1 0 6.26 0 a3.13 3.13 0 1 0 -6.26 0z" fill="black"></path><path d="M84.37 1037.5 a3.13 3.13 0 1 0 6.26 0 a3.13 3.13 0 1 0 -6.26 0zM109.37 1037.5 a3.13 3.13 0 1 0 6.26 0 a3.13 3.13 0 1 0 -6.26 0zM134.37 1037.5 a3.13 3.13 0 1 0 6.26 0 a3.13 3.13 0 1 0 -6.26 0z" fill="black"></path><path d="M459.37 937.5 a3.13 3.13 0 1 0 6.26 0 a3.13 3.13 0 1 0 -6.26 0zM484.37 1137.5 a3.13 3.13 0 1 0 6.26 0 a3.13 3.13 0 1 0 -6.26 0zM484.37 1187.5 a3.13 3.13 0 1 0 6.26 0 a3.13 3.13 0 1 0 -6.26 0zM434.37 1312.5 a3.13 3.13 0 1 0 6.26 0 a3.13 3.13 0 1 0 -6.26 0zM409.37 1362.5 a3.13 3.13 0 1 0 6.26 0 a3.13 3.13 0 1 0 -6.26 0zM434.37 1137.5 a3.13 3.13 0 1 0 6.26 0 a3.13 3.13 0 1 0 -6.26 0z" fill="black"></path><path d="M59.37 887.5 a3.13 3.13 0 1 0 6.26 0 a3.13 3.13 0 1 0 -6.26 0zM109.37 1362.5 a3.13 3.13 0 1 0 6.26 0 a3.13 3.13 0 1 0 -6.26 0zM109.37 787.5 a3.13 3.13 0 1 0 6.26 0 a3.13 3.13 0 1 0 -6.26 0zM59.37 1187.5 a3.13 3.13 0 1 0 6.26 0 a3.13 3.13 0 1 0 -6.26 0zM159.37 1337.5 a3.13 3.13 0 1 0 6.26 0 a3.13 3.13 0 1 0 -6.26 0zM109.37 1312.5 a3.13 3.13 0 1 0 6.26 0 a3.13 3.13 0 1 0 -6.26 0zM134.37 812.5 a3.13 3.13 0 1 0 6.26 0 a3.13 3.13 0 1 0 -6.26 0z" fill="black"></path></mask></defs></svg>