<svg xmlns="http://www.w3.org/2000/svg" version="1.1" xmlns:xlink="http://www.w3.org/1999/xlink" xmlns:svgjs="http://svgjs.com/svgjs" width="1440" height="560" preserveAspectRatio="none" viewBox="0 0 1440 560"><g mask="url(&quot;#SvgjsMask5118&quot;)" fill="none"><g mask="url(&quot;#SvgjsMask5120&quot;)"><path d="M156 300L180 300L204 300L228 300L252 300L276 300L300 300L324 300L348 300L372 276L396 276L420 276L444 276M1044 420L1068 396L1092 396L1116 396M564 348L588 348L612 348L636 348M948 396L972 420L996 420M324 348L348 324L372 324M468 348L492 324M660 372L684 372L708 372L732 372L756 372M300 324L324 324M900 396L924 420L948 420M180 324L204 348M444 348L468 324L492 300L516 276M-12 276L12 300L36 300L60 300L84 300L108 300L132 300L156 300L180 324L204 324L228 324L252 324L276 324L300 324L324 348L348 348L372 348L396 348L420 348L444 348L468 348L492 348L516 348L540 348L564 348L588 372L612 372L636 372L660 372L684 396L708 396L732 396L756 396L780 396L804 396L828 396L852 396L876 396L900 396L924 396L948 396L972 396L996 396L1020 420L1044 420L1068 420L1092 420" stroke="url(#SvgjsLinearGradient5119)" stroke-width="4"></path><path d="M1086 420 a6 6 0 1 0 12 0 a6 6 0 1 0 -12 0zM438 276 a6 6 0 1 0 12 0 a6 6 0 1 0 -12 0zM1110 396 a6 6 0 1 0 12 0 a6 6 0 1 0 -12 0zM630 348 a6 6 0 1 0 12 0 a6 6 0 1 0 -12 0zM990 420 a6 6 0 1 0 12 0 a6 6 0 1 0 -12 0zM366 324 a6 6 0 1 0 12 0 a6 6 0 1 0 -12 0zM486 324 a6 6 0 1 0 12 0 a6 6 0 1 0 -12 0zM750 372 a6 6 0 1 0 12 0 a6 6 0 1 0 -12 0zM318 324 a6 6 0 1 0 12 0 a6 6 0 1 0 -12 0zM942 420 a6 6 0 1 0 12 0 a6 6 0 1 0 -12 0zM198 348 a6 6 0 1 0 12 0 a6 6 0 1 0 -12 0zM510 276 a6 6 0 1 0 12 0 a6 6 0 1 0 -12 0z" fill="url(#SvgjsLinearGradient5119)"></path><path d="M-12 300L12 324" stroke="url(#SvgjsLinearGradient5119)" stroke-width="4"></path><path d="M6 324 a6 6 0 1 0 12 0 a6 6 0 1 0 -12 0z" fill="url(#SvgjsLinearGradient5119)"></path><path d="M60 252L84 228L108 228L132 228M84 252L108 276L132 276L156 276M156 252L180 228L204 228M-12 252L12 252L36 252L60 252L84 252L108 252L132 252L156 252L180 252" stroke="url(#SvgjsLinearGradient5119)" stroke-width="4"></path><path d="M174 252 a6 6 0 1 0 12 0 a6 6 0 1 0 -12 0zM126 228 a6 6 0 1 0 12 0 a6 6 0 1 0 -12 0zM150 276 a6 6 0 1 0 12 0 a6 6 0 1 0 -12 0zM198 228 a6 6 0 1 0 12 0 a6 6 0 1 0 -12 0z" fill="url(#SvgjsLinearGradient5119)"></path><path d="M36 348L60 324M132 348L156 372M108 348L132 324L156 324M-12 324L12 348L36 348L60 348L84 348L108 348L132 348L156 348L180 372L204 372L228 348L252 348L276 348L300 348" stroke="url(#SvgjsLinearGradient5119)" stroke-width="4"></path><path d="M294 348 a6 6 0 1 0 12 0 a6 6 0 1 0 -12 0zM54 324 a6 6 0 1 0 12 0 a6 6 0 1 0 -12 0zM150 372 a6 6 0 1 0 12 0 a6 6 0 1 0 -12 0zM150 324 a6 6 0 1 0 12 0 a6 6 0 1 0 -12 0z" fill="url(#SvgjsLinearGradient5119)"></path><path d="M12 228L36 228M-12 228L12 228L36 204L60 204L84 204L108 204L132 204L156 204" stroke="url(#SvgjsLinearGradient5119)" stroke-width="4"></path><path d="M150 204 a6 6 0 1 0 12 0 a6 6 0 1 0 -12 0zM30 228 a6 6 0 1 0 12 0 a6 6 0 1 0 -12 0z" fill="url(#SvgjsLinearGradient5119)"></path><path d="M876 444L900 420M852 444L876 420M252 396L276 396L300 396L324 396L348 396M708 420L732 444L756 444M684 420L708 444L732 468L756 468L780 468M948 444L972 468L996 468L1020 468L1044 444L1068 444L1092 444L1116 444M228 396L252 372M924 444L948 468L972 492M108 396L132 372M804 444L828 420L852 420M780 420L804 420M-12 348L12 372L36 372L60 372L84 372L108 396L132 396L156 396L180 396L204 396L228 396L252 396L276 372L300 372L324 372L348 372L372 372L396 372L420 372L444 372L468 372L492 372L516 372L540 372L564 372L588 396L612 396L636 396L660 396L684 420L708 420L732 420L756 420L780 420L804 444L828 444L852 444L876 444L900 444L924 444L948 444L972 444L996 444L1020 444" stroke="url(#SvgjsLinearGradient5119)" stroke-width="4"></path><path d="M1014 444 a6 6 0 1 0 12 0 a6 6 0 1 0 -12 0zM894 420 a6 6 0 1 0 12 0 a6 6 0 1 0 -12 0zM870 420 a6 6 0 1 0 12 0 a6 6 0 1 0 -12 0zM342 396 a6 6 0 1 0 12 0 a6 6 0 1 0 -12 0zM750 444 a6 6 0 1 0 12 0 a6 6 0 1 0 -12 0zM774 468 a6 6 0 1 0 12 0 a6 6 0 1 0 -12 0zM1110 444 a6 6 0 1 0 12 0 a6 6 0 1 0 -12 0zM246 372 a6 6 0 1 0 12 0 a6 6 0 1 0 -12 0zM966 492 a6 6 0 1 0 12 0 a6 6 0 1 0 -12 0zM126 372 a6 6 0 1 0 12 0 a6 6 0 1 0 -12 0zM846 420 a6 6 0 1 0 12 0 a6 6 0 1 0 -12 0zM798 420 a6 6 0 1 0 12 0 a6 6 0 1 0 -12 0z" fill="url(#SvgjsLinearGradient5119)"></path><path d="M252 180L276 156L300 156L324 156L348 156M300 180L324 204L348 204L372 204L396 204L420 204L444 204L468 204M228 180L252 156M276 180L300 204L324 228M-12 204L12 204L36 180L60 180L84 180L108 180L132 180L156 180L180 180L204 180L228 180L252 180L276 180L300 180L324 180L348 180L372 180L396 180L420 180" stroke="url(#SvgjsLinearGradient5119)" stroke-width="4"></path><path d="M414 180 a6 6 0 1 0 12 0 a6 6 0 1 0 -12 0zM342 156 a6 6 0 1 0 12 0 a6 6 0 1 0 -12 0zM462 204 a6 6 0 1 0 12 0 a6 6 0 1 0 -12 0zM246 156 a6 6 0 1 0 12 0 a6 6 0 1 0 -12 0zM318 228 a6 6 0 1 0 12 0 a6 6 0 1 0 -12 0z" fill="url(#SvgjsLinearGradient5119)"></path><path d="M540 396L564 420M372 396L396 420L420 420L444 420L468 420M348 420L372 420M492 396L516 420L540 420L564 444M-12 372L12 396L36 396L60 396L84 396L108 420L132 420L156 420L180 420L204 420L228 420L252 420L276 420L300 420L324 420L348 420L372 396L396 396L420 396L444 396L468 396L492 396L516 396L540 396L564 396" stroke="url(#SvgjsLinearGradient5119)" stroke-width="4"></path><path d="M558 396 a6 6 0 1 0 12 0 a6 6 0 1 0 -12 0zM558 420 a6 6 0 1 0 12 0 a6 6 0 1 0 -12 0zM462 420 a6 6 0 1 0 12 0 a6 6 0 1 0 -12 0zM366 420 a6 6 0 1 0 12 0 a6 6 0 1 0 -12 0zM558 444 a6 6 0 1 0 12 0 a6 6 0 1 0 -12 0z" fill="url(#SvgjsLinearGradient5119)"></path><path d="M180 156L204 156L228 156M324 132L348 108L372 108L396 108M84 156L108 132L132 108M156 156L180 132L204 108L228 108L252 108L276 108L300 108M396 132L420 156L444 156L468 156L492 156L516 156L540 156M468 132L492 108L516 108L540 108L564 108M420 132L444 108M-12 180L12 180L36 156L60 156L84 156L108 156L132 156L156 156L180 156L204 132L228 132L252 132L276 132L300 132L324 132L348 132L372 132L396 132L420 132L444 132L468 132L492 132L516 132L540 132L564 132L588 156L612 156L636 156" stroke="url(#SvgjsLinearGradient5119)" stroke-width="4"></path><path d="M630 156 a6 6 0 1 0 12 0 a6 6 0 1 0 -12 0zM222 156 a6 6 0 1 0 12 0 a6 6 0 1 0 -12 0zM390 108 a6 6 0 1 0 12 0 a6 6 0 1 0 -12 0zM126 108 a6 6 0 1 0 12 0 a6 6 0 1 0 -12 0zM294 108 a6 6 0 1 0 12 0 a6 6 0 1 0 -12 0zM534 156 a6 6 0 1 0 12 0 a6 6 0 1 0 -12 0zM558 108 a6 6 0 1 0 12 0 a6 6 0 1 0 -12 0zM438 108 a6 6 0 1 0 12 0 a6 6 0 1 0 -12 0z" fill="url(#SvgjsLinearGradient5119)"></path><path d="M540 468L564 492L588 492L612 492L636 492M420 444L444 468L468 468L492 468M180 444L204 468L228 468L252 468L276 468L300 468M588 468L612 444L636 444L660 444M132 444L156 468L180 468M372 444L396 468L420 468L444 492L468 492L492 492L516 492M348 444L372 468L396 492L420 492M-12 396L12 420L36 420L60 420L84 420L108 444L132 444L156 444L180 444L204 444L228 444L252 444L276 444L300 444L324 444L348 444L372 444L396 444L420 444L444 444L468 444L492 444L516 468L540 468L564 468L588 468L612 468L636 468L660 492L684 516L708 516" stroke="url(#SvgjsLinearGradient5119)" stroke-width="4"></path><path d="M702 516 a6 6 0 1 0 12 0 a6 6 0 1 0 -12 0zM630 492 a6 6 0 1 0 12 0 a6 6 0 1 0 -12 0zM486 468 a6 6 0 1 0 12 0 a6 6 0 1 0 -12 0zM294 468 a6 6 0 1 0 12 0 a6 6 0 1 0 -12 0zM654 444 a6 6 0 1 0 12 0 a6 6 0 1 0 -12 0zM174 468 a6 6 0 1 0 12 0 a6 6 0 1 0 -12 0zM510 492 a6 6 0 1 0 12 0 a6 6 0 1 0 -12 0zM414 492 a6 6 0 1 0 12 0 a6 6 0 1 0 -12 0z" fill="url(#SvgjsLinearGradient5119)"></path></g></g><defs><mask id="SvgjsMask5118"><rect width="1440" height="560" fill="#ffffff"></rect></mask><linearGradient x1="1036.35792" y1="718.816" x2="158.84207999999998" y2="-158.816" gradientUnits="userSpaceOnUse" id="SvgjsLinearGradient5119"><stop stop-color="rgba(58, 124, 195, 1)" offset="0.12"></stop><stop stop-color="rgba(255, 159, 0, 1)" offset="0.81"></stop></linearGradient><mask id="SvgjsMask5120"><rect width="1440" height="560" fill="white"></rect><path d="M1089 420 a3 3 0 1 0 6 0 a3 3 0 1 0 -6 0zM441 276 a3 3 0 1 0 6 0 a3 3 0 1 0 -6 0zM1113 396 a3 3 0 1 0 6 0 a3 3 0 1 0 -6 0zM633 348 a3 3 0 1 0 6 0 a3 3 0 1 0 -6 0zM993 420 a3 3 0 1 0 6 0 a3 3 0 1 0 -6 0zM369 324 a3 3 0 1 0 6 0 a3 3 0 1 0 -6 0zM489 324 a3 3 0 1 0 6 0 a3 3 0 1 0 -6 0zM753 372 a3 3 0 1 0 6 0 a3 3 0 1 0 -6 0zM321 324 a3 3 0 1 0 6 0 a3 3 0 1 0 -6 0zM945 420 a3 3 0 1 0 6 0 a3 3 0 1 0 -6 0zM201 348 a3 3 0 1 0 6 0 a3 3 0 1 0 -6 0zM513 276 a3 3 0 1 0 6 0 a3 3 0 1 0 -6 0z" fill="black"></path><path d="M9 324 a3 3 0 1 0 6 0 a3 3 0 1 0 -6 0z" fill="black"></path><path d="M177 252 a3 3 0 1 0 6 0 a3 3 0 1 0 -6 0zM129 228 a3 3 0 1 0 6 0 a3 3 0 1 0 -6 0zM153 276 a3 3 0 1 0 6 0 a3 3 0 1 0 -6 0zM201 228 a3 3 0 1 0 6 0 a3 3 0 1 0 -6 0z" fill="black"></path><path d="M297 348 a3 3 0 1 0 6 0 a3 3 0 1 0 -6 0zM57 324 a3 3 0 1 0 6 0 a3 3 0 1 0 -6 0zM153 372 a3 3 0 1 0 6 0 a3 3 0 1 0 -6 0zM153 324 a3 3 0 1 0 6 0 a3 3 0 1 0 -6 0z" fill="black"></path><path d="M153 204 a3 3 0 1 0 6 0 a3 3 0 1 0 -6 0zM33 228 a3 3 0 1 0 6 0 a3 3 0 1 0 -6 0z" fill="black"></path><path d="M1017 444 a3 3 0 1 0 6 0 a3 3 0 1 0 -6 0zM897 420 a3 3 0 1 0 6 0 a3 3 0 1 0 -6 0zM873 420 a3 3 0 1 0 6 0 a3 3 0 1 0 -6 0zM345 396 a3 3 0 1 0 6 0 a3 3 0 1 0 -6 0zM753 444 a3 3 0 1 0 6 0 a3 3 0 1 0 -6 0zM777 468 a3 3 0 1 0 6 0 a3 3 0 1 0 -6 0zM1113 444 a3 3 0 1 0 6 0 a3 3 0 1 0 -6 0zM249 372 a3 3 0 1 0 6 0 a3 3 0 1 0 -6 0zM969 492 a3 3 0 1 0 6 0 a3 3 0 1 0 -6 0zM129 372 a3 3 0 1 0 6 0 a3 3 0 1 0 -6 0zM849 420 a3 3 0 1 0 6 0 a3 3 0 1 0 -6 0zM801 420 a3 3 0 1 0 6 0 a3 3 0 1 0 -6 0z" fill="black"></path><path d="M417 180 a3 3 0 1 0 6 0 a3 3 0 1 0 -6 0zM345 156 a3 3 0 1 0 6 0 a3 3 0 1 0 -6 0zM465 204 a3 3 0 1 0 6 0 a3 3 0 1 0 -6 0zM249 156 a3 3 0 1 0 6 0 a3 3 0 1 0 -6 0zM321 228 a3 3 0 1 0 6 0 a3 3 0 1 0 -6 0z" fill="black"></path><path d="M561 396 a3 3 0 1 0 6 0 a3 3 0 1 0 -6 0zM561 420 a3 3 0 1 0 6 0 a3 3 0 1 0 -6 0zM465 420 a3 3 0 1 0 6 0 a3 3 0 1 0 -6 0zM369 420 a3 3 0 1 0 6 0 a3 3 0 1 0 -6 0zM561 444 a3 3 0 1 0 6 0 a3 3 0 1 0 -6 0z" fill="black"></path><path d="M633 156 a3 3 0 1 0 6 0 a3 3 0 1 0 -6 0zM225 156 a3 3 0 1 0 6 0 a3 3 0 1 0 -6 0zM393 108 a3 3 0 1 0 6 0 a3 3 0 1 0 -6 0zM129 108 a3 3 0 1 0 6 0 a3 3 0 1 0 -6 0zM297 108 a3 3 0 1 0 6 0 a3 3 0 1 0 -6 0zM537 156 a3 3 0 1 0 6 0 a3 3 0 1 0 -6 0zM561 108 a3 3 0 1 0 6 0 a3 3 0 1 0 -6 0zM441 108 a3 3 0 1 0 6 0 a3 3 0 1 0 -6 0z" fill="black"></path><path d="M705 516 a3 3 0 1 0 6 0 a3 3 0 1 0 -6 0zM633 492 a3 3 0 1 0 6 0 a3 3 0 1 0 -6 0zM489 468 a3 3 0 1 0 6 0 a3 3 0 1 0 -6 0zM297 468 a3 3 0 1 0 6 0 a3 3 0 1 0 -6 0zM657 444 a3 3 0 1 0 6 0 a3 3 0 1 0 -6 0zM177 468 a3 3 0 1 0 6 0 a3 3 0 1 0 -6 0zM513 492 a3 3 0 1 0 6 0 a3 3 0 1 0 -6 0zM417 492 a3 3 0 1 0 6 0 a3 3 0 1 0 -6 0z" fill="black"></path></mask></defs></svg>