<svg xmlns="http://www.w3.org/2000/svg" version="1.1" xmlns:xlink="http://www.w3.org/1999/xlink" xmlns:svgjs="http://svgjs.com/svgjs" width="1440" height="560" preserveAspectRatio="none" viewBox="0 0 1440 560"><g mask="url(&quot;#SvgjsMask1220&quot;)" fill="none"><rect width="1440" height="560" x="0" y="0" fill="#0e2a47"></rect><g mask="url(&quot;#SvgjsMask1222&quot;)"><path d="M10.5 262.5L31.5 283.5L52.5 283.5L73.5 283.5M157.5 220.5L178.5 241.5L199.5 262.5L220.5 262.5L241.5 262.5M73.5 241.5L94.5 262.5L115.5 262.5M-10.5 283.5L10.5 262.5L31.5 262.5L52.5 262.5L73.5 241.5L94.5 241.5L115.5 241.5L136.5 241.5L157.5 220.5L178.5 220.5L199.5 241.5L220.5 241.5L241.5 241.5L262.5 241.5" stroke="url(#SvgjsLinearGradient1221)" stroke-width="3.5"></path><path d="M257.25 241.5 a5.25 5.25 0 1 0 10.5 0 a5.25 5.25 0 1 0 -10.5 0zM68.25 283.5 a5.25 5.25 0 1 0 10.5 0 a5.25 5.25 0 1 0 -10.5 0zM236.25 262.5 a5.25 5.25 0 1 0 10.5 0 a5.25 5.25 0 1 0 -10.5 0zM110.25 262.5 a5.25 5.25 0 1 0 10.5 0 a5.25 5.25 0 1 0 -10.5 0z" fill="url(#SvgjsLinearGradient1221)"></path><path d="M913.5 157.5L934.5 178.5L955.5 178.5L976.5 178.5M430.5 178.5L451.5 199.5L472.5 199.5L493.5 199.5M409.5 178.5L430.5 199.5L451.5 220.5L472.5 220.5L493.5 220.5L514.5 220.5L535.5 220.5L556.5 220.5L577.5 220.5L598.5 241.5M871.5 157.5L892.5 136.5L913.5 136.5L934.5 136.5L955.5 136.5L976.5 136.5L997.5 136.5L1018.5 136.5L1039.5 136.5L1060.5 115.5M640.5 178.5L661.5 199.5L682.5 199.5L703.5 199.5M388.5 199.5L409.5 199.5L430.5 220.5M682.5 178.5L703.5 157.5L724.5 157.5M619.5 178.5L640.5 199.5L661.5 220.5M346.5 199.5L367.5 220.5L388.5 220.5L409.5 220.5L430.5 241.5L451.5 241.5L472.5 241.5M661.5 178.5L682.5 157.5L703.5 136.5M598.5 178.5L619.5 157.5L640.5 157.5L661.5 157.5L682.5 136.5M-10.5 262.5L10.5 241.5L31.5 241.5L52.5 241.5L73.5 220.5L94.5 220.5L115.5 220.5L136.5 220.5L157.5 199.5L178.5 199.5L199.5 199.5L220.5 199.5L241.5 199.5L262.5 199.5L283.5 199.5L304.5 199.5L325.5 199.5L346.5 199.5L367.5 199.5L388.5 199.5L409.5 178.5L430.5 178.5L451.5 178.5L472.5 178.5L493.5 178.5L514.5 178.5L535.5 178.5L556.5 178.5L577.5 178.5L598.5 178.5L619.5 178.5L640.5 178.5L661.5 178.5L682.5 178.5L703.5 178.5L724.5 178.5L745.5 178.5L766.5 178.5L787.5 157.5L808.5 157.5L829.5 157.5L850.5 157.5L871.5 157.5L892.5 157.5L913.5 157.5L934.5 157.5L955.5 157.5" stroke="url(#SvgjsLinearGradient1221)" stroke-width="3.5"></path><path d="M950.25 157.5 a5.25 5.25 0 1 0 10.5 0 a5.25 5.25 0 1 0 -10.5 0zM971.25 178.5 a5.25 5.25 0 1 0 10.5 0 a5.25 5.25 0 1 0 -10.5 0zM488.25 199.5 a5.25 5.25 0 1 0 10.5 0 a5.25 5.25 0 1 0 -10.5 0zM593.25 241.5 a5.25 5.25 0 1 0 10.5 0 a5.25 5.25 0 1 0 -10.5 0zM1055.25 115.5 a5.25 5.25 0 1 0 10.5 0 a5.25 5.25 0 1 0 -10.5 0zM698.25 199.5 a5.25 5.25 0 1 0 10.5 0 a5.25 5.25 0 1 0 -10.5 0zM425.25 220.5 a5.25 5.25 0 1 0 10.5 0 a5.25 5.25 0 1 0 -10.5 0zM719.25 157.5 a5.25 5.25 0 1 0 10.5 0 a5.25 5.25 0 1 0 -10.5 0zM656.25 220.5 a5.25 5.25 0 1 0 10.5 0 a5.25 5.25 0 1 0 -10.5 0zM467.25 241.5 a5.25 5.25 0 1 0 10.5 0 a5.25 5.25 0 1 0 -10.5 0zM698.25 136.5 a5.25 5.25 0 1 0 10.5 0 a5.25 5.25 0 1 0 -10.5 0zM677.25 136.5 a5.25 5.25 0 1 0 10.5 0 a5.25 5.25 0 1 0 -10.5 0z" fill="url(#SvgjsLinearGradient1221)"></path><path d="M94.5 325.5L115.5 304.5L136.5 304.5L157.5 304.5L178.5 304.5L199.5 304.5L220.5 304.5M346.5 346.5L367.5 325.5L388.5 325.5L409.5 325.5M304.5 367.5L325.5 367.5M31.5 325.5L52.5 304.5M283.5 367.5L304.5 346.5M73.5 325.5L94.5 304.5M-10.5 304.5L10.5 325.5L31.5 325.5L52.5 325.5L73.5 325.5L94.5 325.5L115.5 325.5L136.5 325.5L157.5 325.5L178.5 325.5L199.5 346.5L220.5 346.5L241.5 367.5L262.5 367.5L283.5 367.5L304.5 367.5L325.5 346.5L346.5 346.5L367.5 346.5L388.5 346.5L409.5 346.5L430.5 346.5L451.5 346.5L472.5 346.5L493.5 325.5L514.5 325.5" stroke="url(#SvgjsLinearGradient1221)" stroke-width="3.5"></path><path d="M509.25 325.5 a5.25 5.25 0 1 0 10.5 0 a5.25 5.25 0 1 0 -10.5 0zM215.25 304.5 a5.25 5.25 0 1 0 10.5 0 a5.25 5.25 0 1 0 -10.5 0zM404.25 325.5 a5.25 5.25 0 1 0 10.5 0 a5.25 5.25 0 1 0 -10.5 0zM320.25 367.5 a5.25 5.25 0 1 0 10.5 0 a5.25 5.25 0 1 0 -10.5 0zM47.25 304.5 a5.25 5.25 0 1 0 10.5 0 a5.25 5.25 0 1 0 -10.5 0zM299.25 346.5 a5.25 5.25 0 1 0 10.5 0 a5.25 5.25 0 1 0 -10.5 0zM89.25 304.5 a5.25 5.25 0 1 0 10.5 0 a5.25 5.25 0 1 0 -10.5 0z" fill="url(#SvgjsLinearGradient1221)"></path><path d="M787.5 94.5L808.5 115.5L829.5 115.5L850.5 115.5L871.5 115.5L892.5 115.5L913.5 115.5M283.5 178.5L304.5 157.5L325.5 157.5L346.5 157.5L367.5 157.5L388.5 157.5L409.5 136.5L430.5 136.5L451.5 136.5L472.5 136.5M619.5 136.5L640.5 115.5M1018.5 73.5L1039.5 52.5L1060.5 52.5L1081.5 52.5M262.5 178.5L283.5 157.5L304.5 136.5M871.5 94.5L892.5 73.5L913.5 73.5M997.5 73.5L1018.5 94.5L1039.5 94.5L1060.5 94.5L1081.5 115.5L1102.5 115.5L1123.5 115.5L1144.5 115.5M955.5 73.5L976.5 94.5L997.5 94.5L1018.5 115.5L1039.5 115.5M577.5 136.5L598.5 115.5L619.5 115.5M682.5 115.5L703.5 115.5L724.5 115.5L745.5 115.5L766.5 115.5L787.5 136.5L808.5 136.5L829.5 136.5L850.5 136.5L871.5 136.5M976.5 73.5L997.5 52.5L1018.5 52.5M850.5 94.5L871.5 73.5L892.5 52.5L913.5 52.5M535.5 157.5L556.5 136.5L577.5 115.5M-10.5 241.5L10.5 220.5L31.5 220.5L52.5 220.5L73.5 199.5L94.5 199.5L115.5 199.5L136.5 199.5L157.5 178.5L178.5 178.5L199.5 178.5L220.5 178.5L241.5 178.5L262.5 178.5L283.5 178.5L304.5 178.5L325.5 178.5L346.5 178.5L367.5 178.5L388.5 178.5L409.5 157.5L430.5 157.5L451.5 157.5L472.5 157.5L493.5 157.5L514.5 157.5L535.5 157.5L556.5 157.5L577.5 136.5L598.5 136.5L619.5 136.5L640.5 136.5L661.5 115.5L682.5 115.5L703.5 94.5L724.5 94.5L745.5 94.5L766.5 94.5L787.5 94.5L808.5 94.5L829.5 94.5L850.5 94.5L871.5 94.5L892.5 94.5L913.5 94.5L934.5 94.5L955.5 73.5L976.5 73.5L997.5 73.5L1018.5 73.5L1039.5 73.5L1060.5 73.5L1081.5 73.5" stroke="url(#SvgjsLinearGradient1221)" stroke-width="3.5"></path><path d="M1076.25 73.5 a5.25 5.25 0 1 0 10.5 0 a5.25 5.25 0 1 0 -10.5 0zM908.25 115.5 a5.25 5.25 0 1 0 10.5 0 a5.25 5.25 0 1 0 -10.5 0zM467.25 136.5 a5.25 5.25 0 1 0 10.5 0 a5.25 5.25 0 1 0 -10.5 0zM635.25 115.5 a5.25 5.25 0 1 0 10.5 0 a5.25 5.25 0 1 0 -10.5 0zM1076.25 52.5 a5.25 5.25 0 1 0 10.5 0 a5.25 5.25 0 1 0 -10.5 0zM299.25 136.5 a5.25 5.25 0 1 0 10.5 0 a5.25 5.25 0 1 0 -10.5 0zM908.25 73.5 a5.25 5.25 0 1 0 10.5 0 a5.25 5.25 0 1 0 -10.5 0zM1139.25 115.5 a5.25 5.25 0 1 0 10.5 0 a5.25 5.25 0 1 0 -10.5 0zM1034.25 115.5 a5.25 5.25 0 1 0 10.5 0 a5.25 5.25 0 1 0 -10.5 0zM614.25 115.5 a5.25 5.25 0 1 0 10.5 0 a5.25 5.25 0 1 0 -10.5 0zM866.25 136.5 a5.25 5.25 0 1 0 10.5 0 a5.25 5.25 0 1 0 -10.5 0zM1013.25 52.5 a5.25 5.25 0 1 0 10.5 0 a5.25 5.25 0 1 0 -10.5 0zM908.25 52.5 a5.25 5.25 0 1 0 10.5 0 a5.25 5.25 0 1 0 -10.5 0zM572.25 115.5 a5.25 5.25 0 1 0 10.5 0 a5.25 5.25 0 1 0 -10.5 0z" fill="url(#SvgjsLinearGradient1221)"></path><path d="M94.5 346.5L115.5 367.5M325.5 388.5L346.5 388.5L367.5 388.5L388.5 388.5L409.5 388.5L430.5 388.5M73.5 346.5L94.5 367.5M136.5 346.5L157.5 367.5L178.5 367.5M-10.5 325.5L10.5 346.5L31.5 346.5L52.5 346.5L73.5 346.5L94.5 346.5L115.5 346.5L136.5 346.5L157.5 346.5L178.5 346.5L199.5 367.5L220.5 367.5L241.5 388.5L262.5 388.5L283.5 388.5L304.5 388.5L325.5 388.5L346.5 367.5L367.5 367.5L388.5 367.5" stroke="url(#SvgjsLinearGradient1221)" stroke-width="3.5"></path><path d="M383.25 367.5 a5.25 5.25 0 1 0 10.5 0 a5.25 5.25 0 1 0 -10.5 0zM110.25 367.5 a5.25 5.25 0 1 0 10.5 0 a5.25 5.25 0 1 0 -10.5 0zM425.25 388.5 a5.25 5.25 0 1 0 10.5 0 a5.25 5.25 0 1 0 -10.5 0zM89.25 367.5 a5.25 5.25 0 1 0 10.5 0 a5.25 5.25 0 1 0 -10.5 0zM173.25 367.5 a5.25 5.25 0 1 0 10.5 0 a5.25 5.25 0 1 0 -10.5 0z" fill="url(#SvgjsLinearGradient1221)"></path><path d="M577.5 94.5L598.5 73.5L619.5 73.5L640.5 73.5L661.5 73.5L682.5 73.5L703.5 73.5L724.5 73.5L745.5 73.5L766.5 73.5L787.5 73.5M367.5 115.5L388.5 136.5M556.5 94.5L577.5 73.5M241.5 136.5L262.5 157.5M472.5 94.5L493.5 115.5L514.5 115.5L535.5 115.5L556.5 115.5M535.5 94.5L556.5 73.5M451.5 115.5L472.5 115.5M346.5 115.5L367.5 136.5M-10.5 220.5L10.5 199.5L31.5 199.5L52.5 199.5L73.5 178.5L94.5 178.5L115.5 178.5L136.5 178.5L157.5 157.5L178.5 157.5L199.5 157.5L220.5 136.5L241.5 136.5L262.5 136.5L283.5 115.5L304.5 115.5L325.5 115.5L346.5 115.5L367.5 115.5L388.5 115.5L409.5 115.5L430.5 115.5L451.5 115.5L472.5 94.5L493.5 94.5L514.5 94.5L535.5 94.5L556.5 94.5L577.5 94.5L598.5 94.5L619.5 94.5L640.5 94.5L661.5 94.5" stroke="url(#SvgjsLinearGradient1221)" stroke-width="3.5"></path><path d="M656.25 94.5 a5.25 5.25 0 1 0 10.5 0 a5.25 5.25 0 1 0 -10.5 0zM782.25 73.5 a5.25 5.25 0 1 0 10.5 0 a5.25 5.25 0 1 0 -10.5 0zM383.25 136.5 a5.25 5.25 0 1 0 10.5 0 a5.25 5.25 0 1 0 -10.5 0zM572.25 73.5 a5.25 5.25 0 1 0 10.5 0 a5.25 5.25 0 1 0 -10.5 0zM257.25 157.5 a5.25 5.25 0 1 0 10.5 0 a5.25 5.25 0 1 0 -10.5 0zM551.25 115.5 a5.25 5.25 0 1 0 10.5 0 a5.25 5.25 0 1 0 -10.5 0zM551.25 73.5 a5.25 5.25 0 1 0 10.5 0 a5.25 5.25 0 1 0 -10.5 0zM467.25 115.5 a5.25 5.25 0 1 0 10.5 0 a5.25 5.25 0 1 0 -10.5 0zM362.25 136.5 a5.25 5.25 0 1 0 10.5 0 a5.25 5.25 0 1 0 -10.5 0z" fill="url(#SvgjsLinearGradient1221)"></path><path d="M52.5 367.5L73.5 367.5M-10.5 346.5L10.5 367.5L31.5 367.5L52.5 367.5L73.5 388.5L94.5 388.5L115.5 388.5L136.5 388.5L157.5 388.5L178.5 388.5L199.5 388.5L220.5 388.5L241.5 409.5L262.5 409.5L283.5 409.5L304.5 409.5L325.5 409.5L346.5 409.5L367.5 409.5" stroke="url(#SvgjsLinearGradient1221)" stroke-width="3.5"></path><path d="M362.25 409.5 a5.25 5.25 0 1 0 10.5 0 a5.25 5.25 0 1 0 -10.5 0zM68.25 367.5 a5.25 5.25 0 1 0 10.5 0 a5.25 5.25 0 1 0 -10.5 0z" fill="url(#SvgjsLinearGradient1221)"></path><path d="M94.5 157.5L115.5 136.5L136.5 136.5M31.5 178.5L52.5 157.5M-10.5 199.5L10.5 178.5L31.5 178.5L52.5 178.5L73.5 157.5L94.5 157.5L115.5 157.5L136.5 157.5L157.5 136.5L178.5 136.5L199.5 136.5L220.5 115.5L241.5 115.5L262.5 115.5L283.5 94.5L304.5 94.5L325.5 94.5L346.5 94.5L367.5 94.5L388.5 94.5L409.5 94.5L430.5 94.5" stroke="url(#SvgjsLinearGradient1221)" stroke-width="3.5"></path><path d="M425.25 94.5 a5.25 5.25 0 1 0 10.5 0 a5.25 5.25 0 1 0 -10.5 0zM131.25 136.5 a5.25 5.25 0 1 0 10.5 0 a5.25 5.25 0 1 0 -10.5 0zM47.25 157.5 a5.25 5.25 0 1 0 10.5 0 a5.25 5.25 0 1 0 -10.5 0z" fill="url(#SvgjsLinearGradient1221)"></path><path d="M262.5 430.5L283.5 451.5L304.5 451.5L325.5 451.5L346.5 451.5L367.5 451.5L388.5 472.5L409.5 472.5L430.5 472.5L451.5 472.5M682.5 388.5L703.5 367.5M493.5 430.5L514.5 409.5L535.5 409.5L556.5 409.5L577.5 409.5L598.5 409.5L619.5 409.5L640.5 388.5L661.5 367.5L682.5 367.5L703.5 346.5M598.5 430.5L619.5 451.5M661.5 388.5L682.5 409.5L703.5 409.5L724.5 409.5L745.5 409.5L766.5 409.5L787.5 409.5L808.5 409.5L829.5 409.5L850.5 409.5L871.5 409.5L892.5 409.5L913.5 409.5L934.5 409.5L955.5 409.5L976.5 409.5M640.5 409.5L661.5 409.5L682.5 430.5L703.5 430.5L724.5 430.5M451.5 430.5L472.5 451.5L493.5 451.5L514.5 451.5L535.5 472.5M556.5 430.5L577.5 451.5M535.5 430.5L556.5 451.5L577.5 472.5L598.5 472.5L619.5 472.5M-10.5 367.5L10.5 388.5L31.5 388.5L52.5 388.5L73.5 409.5L94.5 409.5L115.5 409.5L136.5 409.5L157.5 409.5L178.5 409.5L199.5 409.5L220.5 409.5L241.5 430.5L262.5 430.5L283.5 430.5L304.5 430.5L325.5 430.5L346.5 430.5L367.5 430.5L388.5 430.5L409.5 430.5L430.5 430.5L451.5 430.5L472.5 430.5L493.5 430.5L514.5 430.5L535.5 430.5L556.5 430.5L577.5 430.5L598.5 430.5L619.5 430.5L640.5 409.5L661.5 388.5L682.5 388.5L703.5 388.5L724.5 388.5L745.5 388.5L766.5 388.5L787.5 388.5" stroke="url(#SvgjsLinearGradient1221)" stroke-width="3.5"></path><path d="M782.25 388.5 a5.25 5.25 0 1 0 10.5 0 a5.25 5.25 0 1 0 -10.5 0zM446.25 472.5 a5.25 5.25 0 1 0 10.5 0 a5.25 5.25 0 1 0 -10.5 0zM698.25 367.5 a5.25 5.25 0 1 0 10.5 0 a5.25 5.25 0 1 0 -10.5 0zM698.25 346.5 a5.25 5.25 0 1 0 10.5 0 a5.25 5.25 0 1 0 -10.5 0zM614.25 451.5 a5.25 5.25 0 1 0 10.5 0 a5.25 5.25 0 1 0 -10.5 0zM971.25 409.5 a5.25 5.25 0 1 0 10.5 0 a5.25 5.25 0 1 0 -10.5 0zM719.25 430.5 a5.25 5.25 0 1 0 10.5 0 a5.25 5.25 0 1 0 -10.5 0zM530.25 472.5 a5.25 5.25 0 1 0 10.5 0 a5.25 5.25 0 1 0 -10.5 0zM572.25 451.5 a5.25 5.25 0 1 0 10.5 0 a5.25 5.25 0 1 0 -10.5 0zM614.25 472.5 a5.25 5.25 0 1 0 10.5 0 a5.25 5.25 0 1 0 -10.5 0z" fill="url(#SvgjsLinearGradient1221)"></path><path d="M10.5 157.5L31.5 157.5M115.5 115.5L136.5 94.5L157.5 94.5L178.5 94.5L199.5 94.5M430.5 73.5L451.5 73.5L472.5 73.5L493.5 73.5M514.5 52.5L535.5 73.5M-10.5 178.5L10.5 157.5L31.5 136.5L52.5 136.5L73.5 136.5L94.5 115.5L115.5 115.5L136.5 115.5L157.5 115.5L178.5 115.5L199.5 115.5L220.5 94.5L241.5 94.5L262.5 94.5L283.5 73.5L304.5 73.5L325.5 73.5L346.5 73.5L367.5 73.5L388.5 73.5L409.5 73.5L430.5 73.5L451.5 52.5L472.5 52.5L493.5 52.5L514.5 52.5L535.5 52.5L556.5 52.5L577.5 52.5L598.5 52.5L619.5 52.5L640.5 52.5" stroke="url(#SvgjsLinearGradient1221)" stroke-width="3.5"></path><path d="M635.25 52.5 a5.25 5.25 0 1 0 10.5 0 a5.25 5.25 0 1 0 -10.5 0zM26.25 157.5 a5.25 5.25 0 1 0 10.5 0 a5.25 5.25 0 1 0 -10.5 0zM194.25 94.5 a5.25 5.25 0 1 0 10.5 0 a5.25 5.25 0 1 0 -10.5 0zM488.25 73.5 a5.25 5.25 0 1 0 10.5 0 a5.25 5.25 0 1 0 -10.5 0zM530.25 73.5 a5.25 5.25 0 1 0 10.5 0 a5.25 5.25 0 1 0 -10.5 0z" fill="url(#SvgjsLinearGradient1221)"></path><path d="M10.5 409.5L31.5 430.5M199.5 430.5L220.5 451.5L241.5 451.5L262.5 451.5L283.5 472.5M178.5 430.5L199.5 451.5M-10.5 388.5L10.5 409.5L31.5 409.5L52.5 409.5L73.5 430.5L94.5 430.5L115.5 430.5L136.5 430.5L157.5 430.5L178.5 430.5L199.5 430.5L220.5 430.5" stroke="url(#SvgjsLinearGradient1221)" stroke-width="3.5"></path><path d="M215.25 430.5 a5.25 5.25 0 1 0 10.5 0 a5.25 5.25 0 1 0 -10.5 0zM26.25 430.5 a5.25 5.25 0 1 0 10.5 0 a5.25 5.25 0 1 0 -10.5 0zM278.25 472.5 a5.25 5.25 0 1 0 10.5 0 a5.25 5.25 0 1 0 -10.5 0zM194.25 451.5 a5.25 5.25 0 1 0 10.5 0 a5.25 5.25 0 1 0 -10.5 0z" fill="url(#SvgjsLinearGradient1221)"></path><path d="M115.5 73.5L136.5 52.5L157.5 52.5L178.5 52.5L199.5 52.5L220.5 52.5L241.5 52.5L262.5 52.5M52.5 115.5L73.5 94.5L94.5 73.5M31.5 115.5L52.5 94.5L73.5 73.5L94.5 52.5L115.5 52.5M-10.5 157.5L10.5 136.5L31.5 115.5L52.5 115.5L73.5 115.5L94.5 94.5L115.5 73.5L136.5 73.5L157.5 73.5L178.5 73.5L199.5 73.5L220.5 73.5L241.5 73.5L262.5 73.5L283.5 52.5L304.5 52.5L325.5 52.5L346.5 52.5L367.5 52.5L388.5 52.5L409.5 52.5L430.5 52.5" stroke="url(#SvgjsLinearGradient1221)" stroke-width="3.5"></path><path d="M425.25 52.5 a5.25 5.25 0 1 0 10.5 0 a5.25 5.25 0 1 0 -10.5 0zM257.25 52.5 a5.25 5.25 0 1 0 10.5 0 a5.25 5.25 0 1 0 -10.5 0zM89.25 73.5 a5.25 5.25 0 1 0 10.5 0 a5.25 5.25 0 1 0 -10.5 0zM110.25 52.5 a5.25 5.25 0 1 0 10.5 0 a5.25 5.25 0 1 0 -10.5 0z" fill="url(#SvgjsLinearGradient1221)"></path></g></g><defs><mask id="SvgjsMask1220"><rect width="1440" height="560" fill="#ffffff"></rect></mask><linearGradient x1="0" y1="280" x2="1195.2" y2="280" gradientUnits="userSpaceOnUse" id="SvgjsLinearGradient1221"><stop stop-color="#3a7cc3" offset="0"></stop><stop stop-color="#dd1133" offset="1"></stop></linearGradient><mask id="SvgjsMask1222"><rect width="1440" height="560" fill="white"></rect><path d="M259.87 241.5 a2.63 2.63 0 1 0 5.26 0 a2.63 2.63 0 1 0 -5.26 0zM70.87 283.5 a2.63 2.63 0 1 0 5.26 0 a2.63 2.63 0 1 0 -5.26 0zM238.87 262.5 a2.63 2.63 0 1 0 5.26 0 a2.63 2.63 0 1 0 -5.26 0zM112.87 262.5 a2.63 2.63 0 1 0 5.26 0 a2.63 2.63 0 1 0 -5.26 0z" fill="black"></path><path d="M952.87 157.5 a2.63 2.63 0 1 0 5.26 0 a2.63 2.63 0 1 0 -5.26 0zM973.87 178.5 a2.63 2.63 0 1 0 5.26 0 a2.63 2.63 0 1 0 -5.26 0zM490.87 199.5 a2.63 2.63 0 1 0 5.26 0 a2.63 2.63 0 1 0 -5.26 0zM595.87 241.5 a2.63 2.63 0 1 0 5.26 0 a2.63 2.63 0 1 0 -5.26 0zM1057.87 115.5 a2.63 2.63 0 1 0 5.26 0 a2.63 2.63 0 1 0 -5.26 0zM700.87 199.5 a2.63 2.63 0 1 0 5.26 0 a2.63 2.63 0 1 0 -5.26 0zM427.87 220.5 a2.63 2.63 0 1 0 5.26 0 a2.63 2.63 0 1 0 -5.26 0zM721.87 157.5 a2.63 2.63 0 1 0 5.26 0 a2.63 2.63 0 1 0 -5.26 0zM658.87 220.5 a2.63 2.63 0 1 0 5.26 0 a2.63 2.63 0 1 0 -5.26 0zM469.87 241.5 a2.63 2.63 0 1 0 5.26 0 a2.63 2.63 0 1 0 -5.26 0zM700.87 136.5 a2.63 2.63 0 1 0 5.26 0 a2.63 2.63 0 1 0 -5.26 0zM679.87 136.5 a2.63 2.63 0 1 0 5.26 0 a2.63 2.63 0 1 0 -5.26 0z" fill="black"></path><path d="M511.87 325.5 a2.63 2.63 0 1 0 5.26 0 a2.63 2.63 0 1 0 -5.26 0zM217.87 304.5 a2.63 2.63 0 1 0 5.26 0 a2.63 2.63 0 1 0 -5.26 0zM406.87 325.5 a2.63 2.63 0 1 0 5.26 0 a2.63 2.63 0 1 0 -5.26 0zM322.87 367.5 a2.63 2.63 0 1 0 5.26 0 a2.63 2.63 0 1 0 -5.26 0zM49.87 304.5 a2.63 2.63 0 1 0 5.26 0 a2.63 2.63 0 1 0 -5.26 0zM301.87 346.5 a2.63 2.63 0 1 0 5.26 0 a2.63 2.63 0 1 0 -5.26 0zM91.87 304.5 a2.63 2.63 0 1 0 5.26 0 a2.63 2.63 0 1 0 -5.26 0z" fill="black"></path><path d="M1078.87 73.5 a2.63 2.63 0 1 0 5.26 0 a2.63 2.63 0 1 0 -5.26 0zM910.87 115.5 a2.63 2.63 0 1 0 5.26 0 a2.63 2.63 0 1 0 -5.26 0zM469.87 136.5 a2.63 2.63 0 1 0 5.26 0 a2.63 2.63 0 1 0 -5.26 0zM637.87 115.5 a2.63 2.63 0 1 0 5.26 0 a2.63 2.63 0 1 0 -5.26 0zM1078.87 52.5 a2.63 2.63 0 1 0 5.26 0 a2.63 2.63 0 1 0 -5.26 0zM301.87 136.5 a2.63 2.63 0 1 0 5.26 0 a2.63 2.63 0 1 0 -5.26 0zM910.87 73.5 a2.63 2.63 0 1 0 5.26 0 a2.63 2.63 0 1 0 -5.26 0zM1141.87 115.5 a2.63 2.63 0 1 0 5.26 0 a2.63 2.63 0 1 0 -5.26 0zM1036.87 115.5 a2.63 2.63 0 1 0 5.26 0 a2.63 2.63 0 1 0 -5.26 0zM616.87 115.5 a2.63 2.63 0 1 0 5.26 0 a2.63 2.63 0 1 0 -5.26 0zM868.87 136.5 a2.63 2.63 0 1 0 5.26 0 a2.63 2.63 0 1 0 -5.26 0zM1015.87 52.5 a2.63 2.63 0 1 0 5.26 0 a2.63 2.63 0 1 0 -5.26 0zM910.87 52.5 a2.63 2.63 0 1 0 5.26 0 a2.63 2.63 0 1 0 -5.26 0zM574.87 115.5 a2.63 2.63 0 1 0 5.26 0 a2.63 2.63 0 1 0 -5.26 0z" fill="black"></path><path d="M385.87 367.5 a2.63 2.63 0 1 0 5.26 0 a2.63 2.63 0 1 0 -5.26 0zM112.87 367.5 a2.63 2.63 0 1 0 5.26 0 a2.63 2.63 0 1 0 -5.26 0zM427.87 388.5 a2.63 2.63 0 1 0 5.26 0 a2.63 2.63 0 1 0 -5.26 0zM91.87 367.5 a2.63 2.63 0 1 0 5.26 0 a2.63 2.63 0 1 0 -5.26 0zM175.87 367.5 a2.63 2.63 0 1 0 5.26 0 a2.63 2.63 0 1 0 -5.26 0z" fill="black"></path><path d="M658.87 94.5 a2.63 2.63 0 1 0 5.26 0 a2.63 2.63 0 1 0 -5.26 0zM784.87 73.5 a2.63 2.63 0 1 0 5.26 0 a2.63 2.63 0 1 0 -5.26 0zM385.87 136.5 a2.63 2.63 0 1 0 5.26 0 a2.63 2.63 0 1 0 -5.26 0zM574.87 73.5 a2.63 2.63 0 1 0 5.26 0 a2.63 2.63 0 1 0 -5.26 0zM259.87 157.5 a2.63 2.63 0 1 0 5.26 0 a2.63 2.63 0 1 0 -5.26 0zM553.87 115.5 a2.63 2.63 0 1 0 5.26 0 a2.63 2.63 0 1 0 -5.26 0zM553.87 73.5 a2.63 2.63 0 1 0 5.26 0 a2.63 2.63 0 1 0 -5.26 0zM469.87 115.5 a2.63 2.63 0 1 0 5.26 0 a2.63 2.63 0 1 0 -5.26 0zM364.87 136.5 a2.63 2.63 0 1 0 5.26 0 a2.63 2.63 0 1 0 -5.26 0z" fill="black"></path><path d="M364.87 409.5 a2.63 2.63 0 1 0 5.26 0 a2.63 2.63 0 1 0 -5.26 0zM70.87 367.5 a2.63 2.63 0 1 0 5.26 0 a2.63 2.63 0 1 0 -5.26 0z" fill="black"></path><path d="M427.87 94.5 a2.63 2.63 0 1 0 5.26 0 a2.63 2.63 0 1 0 -5.26 0zM133.87 136.5 a2.63 2.63 0 1 0 5.26 0 a2.63 2.63 0 1 0 -5.26 0zM49.87 157.5 a2.63 2.63 0 1 0 5.26 0 a2.63 2.63 0 1 0 -5.26 0z" fill="black"></path><path d="M784.87 388.5 a2.63 2.63 0 1 0 5.26 0 a2.63 2.63 0 1 0 -5.26 0zM448.87 472.5 a2.63 2.63 0 1 0 5.26 0 a2.63 2.63 0 1 0 -5.26 0zM700.87 367.5 a2.63 2.63 0 1 0 5.26 0 a2.63 2.63 0 1 0 -5.26 0zM700.87 346.5 a2.63 2.63 0 1 0 5.26 0 a2.63 2.63 0 1 0 -5.26 0zM616.87 451.5 a2.63 2.63 0 1 0 5.26 0 a2.63 2.63 0 1 0 -5.26 0zM973.87 409.5 a2.63 2.63 0 1 0 5.26 0 a2.63 2.63 0 1 0 -5.26 0zM721.87 430.5 a2.63 2.63 0 1 0 5.26 0 a2.63 2.63 0 1 0 -5.26 0zM532.87 472.5 a2.63 2.63 0 1 0 5.26 0 a2.63 2.63 0 1 0 -5.26 0zM574.87 451.5 a2.63 2.63 0 1 0 5.26 0 a2.63 2.63 0 1 0 -5.26 0zM616.87 472.5 a2.63 2.63 0 1 0 5.26 0 a2.63 2.63 0 1 0 -5.26 0z" fill="black"></path><path d="M637.87 52.5 a2.63 2.63 0 1 0 5.26 0 a2.63 2.63 0 1 0 -5.26 0zM28.87 157.5 a2.63 2.63 0 1 0 5.26 0 a2.63 2.63 0 1 0 -5.26 0zM196.87 94.5 a2.63 2.63 0 1 0 5.26 0 a2.63 2.63 0 1 0 -5.26 0zM490.87 73.5 a2.63 2.63 0 1 0 5.26 0 a2.63 2.63 0 1 0 -5.26 0zM532.87 73.5 a2.63 2.63 0 1 0 5.26 0 a2.63 2.63 0 1 0 -5.26 0z" fill="black"></path><path d="M217.87 430.5 a2.63 2.63 0 1 0 5.26 0 a2.63 2.63 0 1 0 -5.26 0zM28.87 430.5 a2.63 2.63 0 1 0 5.26 0 a2.63 2.63 0 1 0 -5.26 0zM280.87 472.5 a2.63 2.63 0 1 0 5.26 0 a2.63 2.63 0 1 0 -5.26 0zM196.87 451.5 a2.63 2.63 0 1 0 5.26 0 a2.63 2.63 0 1 0 -5.26 0z" fill="black"></path><path d="M427.87 52.5 a2.63 2.63 0 1 0 5.26 0 a2.63 2.63 0 1 0 -5.26 0zM259.87 52.5 a2.63 2.63 0 1 0 5.26 0 a2.63 2.63 0 1 0 -5.26 0zM91.87 73.5 a2.63 2.63 0 1 0 5.26 0 a2.63 2.63 0 1 0 -5.26 0zM112.87 52.5 a2.63 2.63 0 1 0 5.26 0 a2.63 2.63 0 1 0 -5.26 0z" fill="black"></path></mask></defs></svg>