<svg xmlns="http://www.w3.org/2000/svg" version="1.1" xmlns:xlink="http://www.w3.org/1999/xlink" xmlns:svgjs="http://svgjs.com/svgjs" width="1440" height="1440" preserveAspectRatio="none" viewBox="0 0 1440 1440"><g mask="url(&quot;#SvgjsMask2185&quot;)" fill="none"><path d="M346.61 -147.46L479.99 -70.46L479.99 83.54L346.61 160.54L213.24 83.54L213.24 -70.46zM346.61 314.54L479.99 391.54L479.99 545.54L346.61 622.54L213.24 545.54L213.24 391.54zM346.61 1238.54L479.99 1315.54L479.99 1469.54L346.61 1546.54L213.24 1469.54L213.24 1315.54zM613.36 1238.54L746.73 1315.54L746.73 1469.54L613.36 1546.54L479.99 1469.54L479.99 1315.54zM880.1 776.54L1013.47 853.54L1013.47 1007.54L880.1 1084.54L746.73 1007.54L746.73 853.54zM1280.22 83.54L1413.59 160.54L1413.59 314.54L1280.22 391.54L1146.84 314.54L1146.84 160.54zM1413.59 314.54L1546.96 391.54L1546.96 545.54L1413.59 622.54L1280.22 545.54L1280.22 391.54zM1413.59 776.54L1546.96 853.54L1546.96 1007.54L1413.59 1084.54L1280.22 1007.54L1280.22 853.54z" stroke="url(#SvgjsLinearGradient2186)" stroke-width="2"></path></g><defs><mask id="SvgjsMask2185"><rect width="1440" height="1440" fill="#ffffff"></rect></mask><linearGradient x1="0" y1="720" x2="1440" y2="720" gradientUnits="userSpaceOnUse" id="SvgjsLinearGradient2186"><stop stop-color="rgba(14, 21, 71, 1)" offset="0.29"></stop><stop stop-color="rgba(185, 0, 230, 1)" offset="1"></stop></linearGradient></defs></svg>