<svg xmlns="http://www.w3.org/2000/svg" version="1.1" xmlns:xlink="http://www.w3.org/1999/xlink" xmlns:svgjs="http://svgjs.com/svgjs" width="1440" height="560" preserveAspectRatio="none" viewBox="0 0 1440 560"><g mask="url(&quot;#SvgjsMask2121&quot;)" fill="none"><path d="M46.89 -35.64L180.26 41.36L180.26 195.36L46.89 272.36L-86.48 195.36L-86.48 41.36zM180.26 195.36L313.63 272.36L313.63 426.36L180.26 503.36L46.89 426.36L46.89 272.36zM313.63 -35.64L447.01 41.36L447.01 195.36L313.63 272.36L180.26 195.36L180.26 41.36zM980.49 195.36L1113.86 272.36L1113.86 426.36L980.49 503.36L847.12 426.36L847.12 272.36zM1113.86 -35.64L1247.24 41.36L1247.24 195.36L1113.86 272.36L980.49 195.36L980.49 41.36z" stroke="url(#SvgjsLinearGradient2122)" stroke-width="2"></path></g><defs><mask id="SvgjsMask2121"><rect width="1440" height="560" fill="#ffffff"></rect></mask><linearGradient x1="0" y1="280" x2="1440" y2="280" gradientUnits="userSpaceOnUse" id="SvgjsLinearGradient2122"><stop stop-color="rgba(14, 21, 71, 1)" offset="0.29"></stop><stop stop-color="rgba(185, 0, 230, 1)" offset="1"></stop></linearGradient></defs></svg>